<svg xmlns="http://www.w3.org/2000/svg" viewBox="0 0 1240 1000"><rect width="1240" height="1000" fill="#f6f4ed"/><g fill="#323b3b" font-family="Microsoft YaHei, sans-serif"><text x="50" y="52" font-size="24">北京一号 · 比例研究</text><text x="50" y="80" font-size="12" fill="#7c817b">模型正交轮廓 · 总体尺度约束 / 局部形状推定 · 非原始工程三视图</text></g><path d="M148.80,350.10L149.74,351.18 M148.80,350.10L148.80,350.10 M148.80,350.10L148.80,350.10 M148.80,350.10L148.80,350.10 M148.80,350.10L148.80,350.09 M148.80,350.09L148.80,350.09 M148.80,350.09L148.80,350.08 M148.80,350.08L148.80,350.07 M148.80,350.07L148.80,350.07 M148.80,350.07L148.80,350.06 M148.80,350.06L148.80,350.05 M148.80,350.05L148.80,350.04 M148.80,350.04L148.80,350.02 M148.80,350.02L148.80,350.01 M148.80,350.01L148.80,350.00 M148.80,350.00L148.80,349.99 M148.80,349.99L148.80,349.98 M148.80,349.98L148.80,349.96 M148.80,349.96L148.80,349.95 M148.80,349.95L148.80,349.94 M148.80,349.94L148.80,349.93 M148.80,349.93L148.80,349.93 M148.80,349.93L148.80,349.92 M148.80,349.92L148.80,349.91 M148.80,349.91L148.80,349.91 M148.80,349.91L148.80,349.90 M148.80,349.90L148.80,349.90 M148.80,349.90L148.80,349.90 M148.80,349.90L149.74,348.82 M148.80,349.90L148.80,349.90 M149.74,351.18L150.67,352.31 M149.74,348.82L150.67,347.69 M150.67,352.31L151.61,353.41 M150.67,347.69L151.61,346.59 M151.61,353.41L152.54,354.40 M151.61,346.59L152.54,345.60 M152.54,354.40L153.48,355.20 M152.54,345.60L153.48,344.80 M153.48,355.20L155.40,356.50 M153.48,344.80L155.40,343.50 M155.40,356.50L157.33,357.65 M155.40,343.50L157.33,342.35 M157.33,357.65L159.25,358.66 M157.33,342.35L159.25,341.34 M159.25,358.66L161.18,359.57 M159.25,341.34L161.18,340.43 M161.18,359.57L163.10,360.40 M161.18,340.43L163.10,339.60 M163.10,360.40L166.48,361.75 M163.10,339.60L166.48,338.25 M166.48,361.75L169.86,363.00 M166.48,338.25L169.86,337.00 M169.86,363.00L173.24,364.15 M169.86,337.00L173.24,335.85 M173.24,364.15L176.62,365.19 M173.24,335.85L176.62,334.81 M176.62,365.19L180.00,366.12 M176.62,334.81L180.00,333.88 M180.00,366.12L183.90,367.03 M180.00,333.88L183.90,332.97 M183.90,367.03L187.80,367.80 M183.90,332.97L187.80,332.20 M187.80,367.80L191.70,368.48 M187.80,332.20L191.70,331.52 M191.70,368.48L195.60,369.12 M191.70,331.52L195.60,330.88 M195.60,369.12L199.50,369.76 M195.60,330.88L199.50,330.24 M199.50,369.76L203.24,370.40 M199.50,330.24L203.24,329.60 M203.24,370.40L206.99,371.03 M203.24,329.60L206.99,328.97 M206.99,371.03L210.73,371.63 M206.99,328.97L210.73,328.37 M210.73,371.63L214.48,372.17 M210.73,328.37L214.48,327.83 M214.48,372.17L218.22,372.62 M214.48,327.83L218.22,327.38 M218.22,372.62L221.76,372.96 M218.22,327.38L221.76,327.04 M221.76,372.96L225.29,373.23 M221.76,327.04L225.29,326.77 M225.29,373.23L228.83,373.43 M225.29,326.77L228.83,326.57 M228.83,373.43L232.36,373.57 M228.83,326.57L232.36,326.43 M232.36,373.57L235.90,373.66 M232.36,326.43L235.90,326.34 M235.90,373.66L243.18,373.66 M235.90,326.34L243.18,326.34 M243.18,373.66L250.46,373.66 M243.18,326.34L250.46,326.34 M250.46,373.66L257.74,373.66 M250.46,326.34L257.74,326.34 M257.74,373.66L265.02,373.66 M257.74,326.34L265.02,326.34 M265.02,373.66L272.30,373.66 M265.02,326.34L272.30,326.34 M272.30,373.66L281.40,373.51 M272.30,326.34L281.40,326.49 M281.40,373.51L290.50,373.33 M281.40,326.49L290.50,326.67 M290.50,373.33L299.60,373.09 M290.50,326.67L299.60,326.91 M299.60,373.09L308.70,372.78 M299.60,326.91L308.70,327.22 M308.70,372.78L317.80,372.36 M308.70,327.22L317.80,327.64 M317.80,372.36L325.60,371.90 M317.80,327.64L325.60,328.10 M325.60,371.90L333.40,371.35 M325.60,328.10L333.40,328.65 M333.40,371.35L341.20,370.71 M333.40,328.65L341.20,329.29 M341.20,370.71L349.00,370.01 M341.20,329.29L349.00,329.99 M349.00,370.01L356.80,369.24 M349.00,329.99L356.80,330.76 M356.80,369.24L364.34,368.44 M356.80,330.76L364.34,331.56 M364.34,368.44L371.88,367.57 M364.34,331.56L371.88,332.43 M371.88,367.57L379.42,366.63 M371.88,332.43L379.42,333.37 M379.42,366.63L386.96,365.63 M379.42,333.37L386.96,334.37 M386.96,365.63L394.50,364.56 M386.96,334.37L394.50,335.44 M394.50,364.56L401.26,363.53 M394.50,335.44L401.26,336.47 M401.26,363.53L408.02,362.41 M401.26,336.47L408.02,337.59 M408.02,362.41L414.78,361.23 M408.02,337.59L414.78,338.77 M414.78,361.23L421.54,360.03 M414.78,338.77L421.54,339.97 M421.54,360.03L428.30,358.84 M421.54,339.97L428.30,341.16 M428.30,358.84L434.02,357.84 M428.30,341.16L434.02,342.16 M434.02,357.84L439.74,356.85 M434.02,342.16L439.74,343.15 M439.74,356.85L445.46,355.83 M439.74,343.15L445.46,344.17 M445.46,355.83L451.18,354.77 M445.46,344.17L451.18,345.23 M451.18,354.77L456.90,353.64 M451.18,345.23L456.90,346.36 M456.90,353.64L459.76,353.01 M456.90,346.36L459.76,346.99 M459.76,353.01L462.62,352.32 M459.76,346.99L462.62,347.68 M462.62,352.32L465.48,351.58 M462.62,347.68L465.48,348.42 M465.48,351.58L468.34,350.83 M465.48,348.42L468.34,349.17 M468.34,350.83L471.20,350.10 M471.20,350.10L471.20,350.10 M471.20,350.10L471.20,350.10 M471.20,350.10L471.20,350.10 M471.20,350.10L471.20,350.09 M471.20,350.09L471.20,350.09 M471.20,350.09L471.20,350.08 M471.20,350.08L471.20,350.07 M471.20,350.07L471.20,350.07 M471.20,350.07L471.20,350.06 M471.20,350.06L471.20,350.05 M471.20,350.05L471.20,350.04 M471.20,350.04L471.20,350.02 M471.20,350.02L471.20,350.01 M471.20,350.01L471.20,350.00 M471.20,350.00L471.20,349.99 M471.20,349.99L471.20,349.98 M471.20,349.98L471.20,349.96 M471.20,349.96L471.20,349.95 M471.20,349.95L471.20,349.94 M471.20,349.94L471.20,349.93 M471.20,349.93L471.20,349.93 M471.20,349.93L471.20,349.92 M471.20,349.92L471.20,349.91 M471.20,349.91L471.20,349.91 M471.20,349.91L471.20,349.90 M471.20,349.90L471.20,349.90 M471.20,349.90L471.20,349.90 M471.20,349.90L471.20,349.90 M468.34,349.17L471.20,349.90 M352.90,350.00L351.92,338.30 M352.90,350.00L352.59,350.00 M352.59,350.00L351.68,350.00 M351.68,350.00L350.16,350.00 M350.16,350.00L348.07,350.00 M348.07,350.00L345.43,350.00 M345.43,350.00L342.26,350.00 M342.26,350.00L338.62,350.00 M338.62,350.00L334.55,350.00 M334.55,350.00L330.09,350.00 M330.09,350.00L325.30,350.00 M325.30,350.00L320.25,350.00 M320.25,350.00L315.00,350.00 M315.00,350.00L309.61,350.00 M309.61,350.00L304.15,350.00 M304.15,350.00L298.69,350.00 M298.69,350.00L293.30,350.00 M293.30,350.00L288.05,350.00 M288.05,350.00L283.00,350.00 M283.00,350.00L278.21,350.00 M278.21,350.00L273.75,350.00 M273.75,350.00L269.68,350.00 M269.68,350.00L266.04,350.00 M266.04,350.00L262.87,350.00 M262.87,350.00L260.23,350.00 M260.23,350.00L258.14,350.00 M258.14,350.00L256.62,350.00 M256.62,350.00L255.71,350.00 M255.40,350.00L256.60,338.30 M255.71,350.00L255.40,350.00 M351.92,338.30L350.95,326.60 M256.60,338.30L257.80,326.60 M350.95,326.60L349.78,314.90 M257.80,326.60L259.30,314.90 M349.78,314.90L348.06,300.60 M259.30,314.90L261.71,300.60 M348.06,300.60L346.15,286.30 M261.71,300.60L264.41,286.30 M346.15,286.30L344.06,272.00 M264.41,286.30L267.10,272.00 M344.06,272.00L339.12,239.93 M267.10,272.00L272.77,239.93 M339.12,239.93L334.01,207.87 M272.77,239.93L278.41,207.87 M334.01,207.87L328.72,175.80 M278.41,207.87L284.26,175.80 M328.72,175.80L327.01,164.97 M284.26,175.80L286.27,164.97 M327.01,164.97L325.12,154.13 M286.27,164.97L288.48,154.13 M325.12,154.13L322.48,143.30 M288.48,154.13L291.28,143.30 M322.48,143.30L321.34,141.57 M291.28,143.30L292.28,141.57 M321.34,141.57L319.44,139.83 M292.28,141.57L293.86,139.83 M319.44,139.83L317.54,138.10 M317.54,138.10L317.47,138.10 M317.47,138.10L317.26,138.10 M317.26,138.10L316.92,138.10 M316.92,138.10L316.45,138.10 M316.45,138.10L315.85,138.10 M315.85,138.10L315.13,138.10 M315.13,138.10L314.30,138.10 M314.30,138.10L313.38,138.10 M313.38,138.10L312.37,138.10 M312.37,138.10L311.28,138.10 M311.28,138.10L310.14,138.10 M310.14,138.10L308.95,138.10 M308.95,138.10L307.73,138.10 M307.73,138.10L306.49,138.10 M306.49,138.10L305.25,138.10 M305.25,138.10L304.03,138.10 M304.03,138.10L302.84,138.10 M302.84,138.10L301.70,138.10 M301.70,138.10L300.61,138.10 M300.61,138.10L299.60,138.10 M299.60,138.10L298.68,138.10 M298.68,138.10L297.85,138.10 M297.85,138.10L297.13,138.10 M297.13,138.10L296.53,138.10 M296.53,138.10L296.06,138.10 M296.06,138.10L295.72,138.10 M295.72,138.10L295.51,138.10 M295.51,138.10L295.44,138.10 M293.86,139.83L295.44,138.10 M467.56,350.00L466.78,342.20 M467.56,350.00L467.35,350.00 M467.35,350.00L466.72,350.00 M466.72,350.00L465.67,350.00 M465.67,350.00L464.23,350.00 M464.23,350.00L462.40,350.00 M462.40,350.00L460.21,350.00 M460.21,350.00L457.70,350.00 M457.70,350.00L454.88,350.00 M454.88,350.00L451.80,350.00 M451.80,350.00L448.50,350.00 M448.50,350.00L445.01,350.00 M445.01,350.00L441.38,350.00 M441.38,350.00L437.66,350.00 M437.66,350.00L433.89,350.00 M433.89,350.00L430.12,350.00 M430.12,350.00L426.40,350.00 M426.40,350.00L422.77,350.00 M422.77,350.00L419.28,350.00 M419.28,350.00L415.98,350.00 M415.98,350.00L412.90,350.00 M412.90,350.00L410.08,350.00 M410.08,350.00L407.57,350.00 M407.57,350.00L405.38,350.00 M405.38,350.00L403.55,350.00 M403.55,350.00L402.11,350.00 M402.11,350.00L401.06,350.00 M401.06,350.00L400.43,350.00 M400.22,350.00L400.90,342.20 M400.43,350.00L400.22,350.00 M466.78,342.20L465.99,334.40 M400.90,342.20L401.58,334.40 M465.99,334.40L464.70,326.60 M401.58,334.40L403.08,326.60 M464.70,326.60L461.44,312.73 M403.08,326.60L407.45,312.73 M461.44,312.73L457.67,298.87 M407.45,312.73L412.64,298.87 M457.67,298.87L453.26,285.00 M412.64,298.87L418.42,285.00 M453.26,285.00L452.13,283.27 M418.42,285.00L419.67,283.27 M452.13,283.27L450.35,281.53 M419.67,283.27L421.51,281.53 M450.35,281.53L448.58,279.80 M448.58,279.80L448.50,279.80 M448.50,279.80L448.26,279.80 M448.26,279.80L447.87,279.80 M447.87,279.80L447.33,279.80 M447.33,279.80L446.65,279.80 M446.65,279.80L445.83,279.80 M445.83,279.80L444.89,279.80 M444.89,279.80L443.83,279.80 M443.83,279.80L442.68,279.80 M442.68,279.80L441.44,279.80 M441.44,279.80L440.13,279.80 M440.13,279.80L438.78,279.80 M438.78,279.80L437.38,279.80 M437.38,279.80L435.97,279.80 M435.97,279.80L434.56,279.80 M434.56,279.80L433.16,279.80 M433.16,279.80L431.81,279.80 M431.81,279.80L430.50,279.80 M430.50,279.80L429.26,279.80 M429.26,279.80L428.11,279.80 M428.11,279.80L427.05,279.80 M427.05,279.80L426.11,279.80 M426.11,279.80L425.29,279.80 M425.29,279.80L424.61,279.80 M424.61,279.80L424.07,279.80 M424.07,279.80L423.68,279.80 M423.68,279.80L423.44,279.80 M423.44,279.80L423.36,279.80 M421.51,281.53L423.36,279.80 M235.12,287.34L235.90,288.60 M235.12,287.34L235.12,287.25 M235.12,287.25L235.12,286.99 M235.12,286.99L235.12,286.57 M235.12,286.57L235.12,285.98 M235.12,285.98L235.12,285.24 M235.12,285.24L235.12,284.37 M235.12,284.37L235.12,283.37 M235.12,283.37L235.12,282.27 M235.12,282.27L235.12,281.08 M235.12,281.08L235.12,279.82 M235.12,279.82L235.12,278.52 M235.12,278.52L235.12,277.20 M235.12,277.20L235.12,275.88 M235.12,275.88L235.12,274.58 M235.12,274.58L235.12,273.32 M235.12,273.32L235.12,272.13 M235.12,272.13L235.12,271.03 M235.12,271.03L235.12,270.03 M235.12,270.03L235.12,269.16 M235.12,269.16L235.12,268.42 M235.12,268.42L235.12,267.83 M235.12,267.83L235.12,267.41 M235.12,267.41L235.12,267.15 M235.12,267.06L235.90,265.80 M235.12,267.15L235.12,267.06 M235.90,288.60L236.68,289.97 M235.90,265.80L236.68,264.43 M236.68,289.97L237.46,291.13 M236.68,264.43L237.46,263.27 M237.46,291.13L238.24,291.76 M237.46,263.27L238.24,262.64 M238.24,291.76L241.10,292.28 M238.24,262.64L241.10,262.12 M241.10,292.28L243.96,292.28 M241.10,262.12L243.96,262.12 M243.96,292.28L246.82,292.28 M243.96,262.12L246.82,262.12 M246.82,292.28L249.68,292.28 M246.82,262.12L249.68,262.12 M249.68,292.28L254.36,292.20 M249.68,262.12L254.36,262.20 M254.36,292.20L259.04,292.04 M254.36,262.20L259.04,262.36 M259.04,292.04L263.72,291.81 M259.04,262.36L263.72,262.59 M263.72,291.81L268.40,291.50 M263.72,262.59L268.40,262.90 M268.40,291.50L276.20,290.89 M268.40,262.90L276.20,263.51 M276.20,290.89L284.00,290.20 M276.20,263.51L284.00,264.20 M284.00,290.20L291.80,289.45 M284.00,264.20L291.80,264.95 M291.80,289.45L299.60,288.64 M291.80,264.95L299.60,265.76 M299.60,288.64L306.42,287.95 M299.60,265.76L306.42,266.45 M306.42,287.95L313.25,287.24 M306.42,266.45L313.25,267.16 M313.25,287.24L320.07,286.39 M313.25,267.16L320.07,268.01 M320.07,286.39L326.90,285.26 M320.07,268.01L326.90,269.14 M326.90,285.26L332.88,283.92 M326.90,269.14L332.88,270.48 M332.88,283.92L338.86,282.29 M332.88,270.48L338.86,272.11 M338.86,282.29L344.84,280.52 M338.86,272.11L344.84,273.88 M344.84,280.52L350.82,278.76 M344.84,273.88L350.82,275.64 M350.82,278.76L351.79,278.44 M350.82,275.64L351.79,275.96 M351.79,278.44L352.77,278.07 M351.79,275.96L352.77,276.33 M352.77,278.07L353.75,277.68 M352.77,276.33L353.75,276.72 M353.75,277.68L354.72,277.30 M354.72,277.30L354.72,277.30 M354.72,277.30L354.72,277.30 M354.72,277.30L354.72,277.30 M354.72,277.30L354.72,277.29 M354.72,277.29L354.72,277.28 M354.72,277.28L354.72,277.27 M354.72,277.27L354.72,277.26 M354.72,277.26L354.72,277.25 M354.72,277.25L354.72,277.24 M354.72,277.24L354.72,277.23 M354.72,277.23L354.72,277.21 M354.72,277.21L354.72,277.20 M354.72,277.20L354.72,277.19 M354.72,277.19L354.72,277.17 M354.72,277.17L354.72,277.16 M354.72,277.16L354.72,277.15 M354.72,277.15L354.72,277.14 M354.72,277.14L354.72,277.13 M354.72,277.13L354.72,277.12 M354.72,277.12L354.72,277.11 M354.72,277.11L354.72,277.10 M354.72,277.10L354.72,277.10 M354.72,277.10L354.72,277.10 M354.72,277.10L354.72,277.10 M353.75,276.72L354.72,277.10 M352.90,350.00L351.92,361.70 M352.90,350.00L352.59,350.00 M352.59,350.00L351.68,350.00 M351.68,350.00L350.16,350.00 M350.16,350.00L348.07,350.00 M348.07,350.00L345.43,350.00 M345.43,350.00L342.26,350.00 M342.26,350.00L338.62,350.00 M338.62,350.00L334.55,350.00 M334.55,350.00L330.09,350.00 M330.09,350.00L325.30,350.00 M325.30,350.00L320.25,350.00 M320.25,350.00L315.00,350.00 M315.00,350.00L309.61,350.00 M309.61,350.00L304.15,350.00 M304.15,350.00L298.69,350.00 M298.69,350.00L293.30,350.00 M293.30,350.00L288.05,350.00 M288.05,350.00L283.00,350.00 M283.00,350.00L278.21,350.00 M278.21,350.00L273.75,350.00 M273.75,350.00L269.68,350.00 M269.68,350.00L266.04,350.00 M266.04,350.00L262.87,350.00 M262.87,350.00L260.23,350.00 M260.23,350.00L258.14,350.00 M258.14,350.00L256.62,350.00 M256.62,350.00L255.71,350.00 M255.71,350.00L255.40,350.00 M255.40,350.00L256.60,361.70 M351.92,361.70L350.95,373.40 M256.60,361.70L257.80,373.40 M350.95,373.40L349.78,385.10 M257.80,373.40L259.30,385.10 M349.78,385.10L348.06,399.40 M259.30,385.10L261.71,399.40 M348.06,399.40L346.15,413.70 M261.71,399.40L264.41,413.70 M346.15,413.70L344.06,428.00 M264.41,413.70L267.10,428.00 M344.06,428.00L339.12,460.07 M267.10,428.00L272.77,460.07 M339.12,460.07L334.01,492.13 M272.77,460.07L278.41,492.13 M334.01,492.13L328.72,524.20 M278.41,492.13L284.26,524.20 M328.72,524.20L327.01,535.03 M284.26,524.20L286.27,535.03 M327.01,535.03L325.12,545.87 M286.27,535.03L288.48,545.87 M325.12,545.87L322.48,556.70 M288.48,545.87L291.28,556.70 M322.48,556.70L321.34,558.43 M291.28,556.70L292.28,558.43 M321.34,558.43L319.44,560.17 M292.28,558.43L293.86,560.17 M295.44,561.90L295.51,561.90 M295.51,561.90L295.72,561.90 M295.72,561.90L296.06,561.90 M296.06,561.90L296.53,561.90 M296.53,561.90L297.13,561.90 M297.13,561.90L297.85,561.90 M297.85,561.90L298.68,561.90 M298.68,561.90L299.60,561.90 M299.60,561.90L300.61,561.90 M300.61,561.90L301.70,561.90 M301.70,561.90L302.84,561.90 M302.84,561.90L304.03,561.90 M304.03,561.90L305.25,561.90 M305.25,561.90L306.49,561.90 M306.49,561.90L307.73,561.90 M307.73,561.90L308.95,561.90 M308.95,561.90L310.14,561.90 M310.14,561.90L311.28,561.90 M311.28,561.90L312.37,561.90 M312.37,561.90L313.38,561.90 M313.38,561.90L314.30,561.90 M314.30,561.90L315.13,561.90 M315.13,561.90L315.85,561.90 M315.85,561.90L316.45,561.90 M316.45,561.90L316.92,561.90 M316.92,561.90L317.26,561.90 M317.26,561.90L317.47,561.90 M317.47,561.90L317.54,561.90 M319.44,560.17L317.54,561.90 M317.54,561.90L317.54,561.90 M293.86,560.17L295.44,561.90 M295.44,561.90L295.44,561.90 M467.56,350.00L466.78,357.80 M467.56,350.00L467.35,350.00 M467.35,350.00L466.72,350.00 M466.72,350.00L465.67,350.00 M465.67,350.00L464.23,350.00 M464.23,350.00L462.40,350.00 M462.40,350.00L460.21,350.00 M460.21,350.00L457.70,350.00 M457.70,350.00L454.88,350.00 M454.88,350.00L451.80,350.00 M451.80,350.00L448.50,350.00 M448.50,350.00L445.01,350.00 M445.01,350.00L441.38,350.00 M441.38,350.00L437.66,350.00 M437.66,350.00L433.89,350.00 M433.89,350.00L430.12,350.00 M430.12,350.00L426.40,350.00 M426.40,350.00L422.77,350.00 M422.77,350.00L419.28,350.00 M419.28,350.00L415.98,350.00 M415.98,350.00L412.90,350.00 M412.90,350.00L410.08,350.00 M410.08,350.00L407.57,350.00 M407.57,350.00L405.38,350.00 M405.38,350.00L403.55,350.00 M403.55,350.00L402.11,350.00 M402.11,350.00L401.06,350.00 M401.06,350.00L400.43,350.00 M400.43,350.00L400.22,350.00 M400.22,350.00L400.90,357.80 M466.78,357.80L465.99,365.60 M400.90,357.80L401.58,365.60 M465.99,365.60L464.70,373.40 M401.58,365.60L403.08,373.40 M464.70,373.40L461.44,387.27 M403.08,373.40L407.45,387.27 M461.44,387.27L457.67,401.13 M407.45,387.27L412.64,401.13 M457.67,401.13L453.26,415.00 M412.64,401.13L418.42,415.00 M453.26,415.00L452.13,416.73 M418.42,415.00L419.67,416.73 M452.13,416.73L450.35,418.47 M419.67,416.73L421.51,418.47 M423.36,420.20L423.44,420.20 M423.44,420.20L423.68,420.20 M423.68,420.20L424.07,420.20 M424.07,420.20L424.61,420.20 M424.61,420.20L425.29,420.20 M425.29,420.20L426.11,420.20 M426.11,420.20L427.05,420.20 M427.05,420.20L428.11,420.20 M428.11,420.20L429.26,420.20 M429.26,420.20L430.50,420.20 M430.50,420.20L431.81,420.20 M431.81,420.20L433.16,420.20 M433.16,420.20L434.56,420.20 M434.56,420.20L435.97,420.20 M435.97,420.20L437.38,420.20 M437.38,420.20L438.78,420.20 M438.78,420.20L440.13,420.20 M440.13,420.20L441.44,420.20 M441.44,420.20L442.68,420.20 M442.68,420.20L443.83,420.20 M443.83,420.20L444.89,420.20 M444.89,420.20L445.83,420.20 M445.83,420.20L446.65,420.20 M446.65,420.20L447.33,420.20 M447.33,420.20L447.87,420.20 M447.87,420.20L448.26,420.20 M448.26,420.20L448.50,420.20 M448.50,420.20L448.58,420.20 M450.35,418.47L448.58,420.20 M448.58,420.20L448.58,420.20 M421.51,418.47L423.36,420.20 M423.36,420.20L423.36,420.20 M235.12,432.94L235.90,434.20 M235.12,432.94L235.12,432.85 M235.12,432.85L235.12,432.59 M235.12,432.59L235.12,432.17 M235.12,432.17L235.12,431.58 M235.12,431.58L235.12,430.84 M235.12,430.84L235.12,429.97 M235.12,429.97L235.12,428.97 M235.12,428.97L235.12,427.87 M235.12,427.87L235.12,426.68 M235.12,426.68L235.12,425.42 M235.12,425.42L235.12,424.12 M235.12,424.12L235.12,422.80 M235.12,422.80L235.12,421.48 M235.12,421.48L235.12,420.18 M235.12,420.18L235.12,418.92 M235.12,418.92L235.12,417.73 M235.12,417.73L235.12,416.63 M235.12,416.63L235.12,415.63 M235.12,415.63L235.12,414.76 M235.12,414.76L235.12,414.02 M235.12,414.02L235.12,413.43 M235.12,413.43L235.12,413.01 M235.12,413.01L235.12,412.75 M235.12,412.66L235.90,411.40 M235.12,412.75L235.12,412.66 M235.90,434.20L236.68,435.57 M235.90,411.40L236.68,410.03 M236.68,435.57L237.46,436.73 M236.68,410.03L237.46,408.87 M237.46,436.73L238.24,437.36 M237.46,408.87L238.24,408.24 M238.24,437.36L241.10,437.88 M238.24,408.24L241.10,407.72 M241.10,437.88L243.96,437.88 M241.10,407.72L243.96,407.72 M243.96,437.88L246.82,437.88 M243.96,407.72L246.82,407.72 M246.82,437.88L249.68,437.88 M246.82,407.72L249.68,407.72 M249.68,437.88L254.36,437.80 M249.68,407.72L254.36,407.80 M254.36,437.80L259.04,437.64 M254.36,407.80L259.04,407.96 M259.04,437.64L263.72,437.41 M259.04,407.96L263.72,408.19 M263.72,437.41L268.40,437.10 M263.72,408.19L268.40,408.50 M268.40,437.10L276.20,436.49 M268.40,408.50L276.20,409.11 M276.20,436.49L284.00,435.80 M276.20,409.11L284.00,409.80 M284.00,435.80L291.80,435.05 M284.00,409.80L291.80,410.55 M291.80,435.05L299.60,434.24 M291.80,410.55L299.60,411.36 M299.60,434.24L306.42,433.55 M299.60,411.36L306.42,412.05 M306.42,433.55L313.25,432.84 M306.42,412.05L313.25,412.76 M313.25,432.84L320.07,431.99 M313.25,412.76L320.07,413.61 M320.07,431.99L326.90,430.86 M320.07,413.61L326.90,414.74 M326.90,430.86L332.88,429.52 M326.90,414.74L332.88,416.08 M332.88,429.52L338.86,427.89 M332.88,416.08L338.86,417.71 M338.86,427.89L344.84,426.12 M338.86,417.71L344.84,419.48 M344.84,426.12L350.82,424.36 M344.84,419.48L350.82,421.24 M350.82,424.36L351.79,424.04 M350.82,421.24L351.79,421.56 M351.79,424.04L352.77,423.67 M351.79,421.56L352.77,421.93 M352.77,423.67L353.75,423.28 M352.77,421.93L353.75,422.32 M353.75,423.28L354.72,422.90 M354.72,422.90L354.72,422.90 M354.72,422.90L354.72,422.90 M354.72,422.90L354.72,422.90 M354.72,422.90L354.72,422.89 M354.72,422.89L354.72,422.88 M354.72,422.88L354.72,422.87 M354.72,422.87L354.72,422.86 M354.72,422.86L354.72,422.85 M354.72,422.85L354.72,422.84 M354.72,422.84L354.72,422.83 M354.72,422.83L354.72,422.81 M354.72,422.81L354.72,422.80 M354.72,422.80L354.72,422.79 M354.72,422.79L354.72,422.77 M354.72,422.77L354.72,422.76 M354.72,422.76L354.72,422.75 M354.72,422.75L354.72,422.74 M354.72,422.74L354.72,422.73 M354.72,422.73L354.72,422.72 M354.72,422.72L354.72,422.71 M354.72,422.71L354.72,422.70 M354.72,422.70L354.72,422.70 M354.72,422.70L354.72,422.70 M354.72,422.70L354.72,422.70 M353.75,422.32L354.72,422.70 M392.68,350.03L392.92,350.76 M392.92,350.76L393.65,351.47 M393.65,351.47L394.85,352.14 M394.85,352.14L396.52,352.74 M396.52,352.74L398.62,353.28 M398.62,353.28L401.13,353.74 M401.13,353.74L404.03,354.11 M404.03,354.11L407.27,354.39 M407.27,354.39L410.81,354.57 M410.81,354.57L414.61,354.64 M414.61,354.64L418.62,354.63 M418.62,354.63L422.80,354.52 M422.80,354.52L427.08,354.34 M427.08,354.34L431.42,354.10 M431.42,354.10L435.76,353.79 M435.76,353.79L440.04,353.45 M440.04,353.45L444.22,353.08 M444.22,353.08L448.23,352.68 M448.23,352.68L452.03,352.28 M452.03,352.28L455.57,351.89 M455.57,351.89L458.81,351.51 M458.81,351.51L461.71,351.15 M461.71,351.15L464.22,350.82 M464.22,350.82L466.32,350.54 M466.32,350.54L467.99,350.31 M467.99,350.31L469.19,350.14 M469.19,350.14L469.92,350.04 M469.92,350.04L470.16,350.03 M470.16,350.03L470.16,349.97 M470.16,349.97L469.92,349.96 M469.92,349.96L469.19,349.86 M469.19,349.86L467.99,349.69 M467.99,349.69L466.32,349.46 M466.32,349.46L464.22,349.18 M464.22,349.18L461.71,348.85 M461.71,348.85L458.81,348.49 M458.81,348.49L455.57,348.11 M455.57,348.11L452.03,347.72 M452.03,347.72L448.23,347.32 M448.23,347.32L444.22,346.92 M444.22,346.92L440.04,346.55 M440.04,346.55L435.76,346.21 M435.76,346.21L431.42,345.90 M431.42,345.90L427.08,345.66 M427.08,345.66L422.80,345.48 M422.80,345.48L418.62,345.37 M418.62,345.37L414.61,345.36 M414.61,345.36L410.81,345.43 M410.81,345.43L407.27,345.61 M407.27,345.61L404.03,345.89 M404.03,345.89L401.13,346.26 M401.13,346.26L398.62,346.72 M398.62,346.72L396.52,347.26 M396.52,347.26L394.85,347.86 M394.85,347.86L393.65,348.53 M393.65,348.53L392.92,349.24 M392.92,349.24L392.68,349.97 M392.68,350.03L392.68,349.97" fill="none" stroke="#536265" stroke-width=".85"/><text x="50" y="595" fill="#323b3b" font-size="14" font-family="Microsoft YaHei,sans-serif">俯视 / TOP</text><path d="M635.60,316.73L636.93,315.43 M635.60,317.47L636.93,318.78 M635.60,317.47L635.60,317.47 M635.60,317.47L635.60,317.46 M635.60,317.46L635.60,317.45 M635.60,317.45L635.60,317.44 M635.60,317.44L635.60,317.42 M635.60,317.42L635.60,317.39 M635.60,317.39L635.60,317.37 M635.60,317.37L635.60,317.34 M635.60,317.34L635.60,317.30 M635.60,317.30L635.60,317.27 M635.60,317.27L635.60,317.23 M635.60,317.23L635.60,317.19 M635.60,317.19L635.60,317.15 M635.60,317.15L635.60,317.10 M635.60,317.10L635.60,317.05 M635.60,317.05L635.60,317.01 M635.60,317.01L635.60,316.97 M635.60,316.97L635.60,316.93 M635.60,316.93L635.60,316.90 M635.60,316.90L635.60,316.86 M635.60,316.86L635.60,316.83 M635.60,316.83L635.60,316.81 M635.60,316.81L635.60,316.78 M635.60,316.78L635.60,316.76 M635.60,316.76L635.60,316.75 M635.60,316.75L635.60,316.74 M635.60,316.74L635.60,316.73 M635.60,316.73L635.60,316.73 M636.93,315.43L638.26,314.09 M636.93,318.78L638.26,320.15 M638.26,314.09L639.60,312.77 M638.26,320.15L639.60,321.49 M639.60,312.77L640.93,311.53 M639.60,321.49L640.93,322.72 M640.93,311.53L642.26,310.44 M640.93,322.72L642.26,323.76 M642.26,310.44L645.00,308.43 M642.26,323.76L645.00,325.61 M645.00,308.43L647.74,306.51 M645.00,325.61L647.74,327.35 M647.74,306.51L650.47,304.71 M647.74,327.35L650.47,328.95 M650.47,304.71L653.21,303.05 M650.47,328.95L653.21,330.35 M653.21,303.05L655.95,301.56 M653.21,330.35L655.95,331.53 M655.95,301.56L660.76,299.19 M655.95,331.53L660.76,333.26 M660.76,299.19L665.57,296.97 M660.76,333.26L665.57,334.79 M665.57,296.97L670.38,294.91 M665.57,334.79L670.38,336.11 M670.38,294.91L675.19,292.98 M670.38,336.11L675.19,337.24 M675.19,292.98L680.00,291.20 M675.19,337.24L680.00,338.19 M680.00,291.20L685.55,289.48 M680.00,338.19L685.55,339.05 M685.55,289.48L691.10,288.09 M685.55,339.05L691.10,339.69 M691.10,288.09L696.65,286.74 M691.10,339.69L696.65,340.15 M696.65,286.74L702.20,285.16 M696.65,340.15L702.20,340.50 M702.20,285.16L707.75,283.06 M702.20,340.50L707.75,340.78 M707.75,283.06L713.08,280.21 M707.75,340.78L713.08,340.78 M713.08,280.21L718.41,276.70 M713.08,340.78L718.41,340.78 M718.41,276.70L723.73,273.02 M718.41,340.78L723.73,340.78 M723.73,273.02L729.06,269.67 M723.73,340.78L729.06,340.78 M729.06,269.67L734.39,267.15 M729.06,340.78L734.39,340.78 M734.39,267.15L739.42,265.70 M734.39,340.78L739.42,340.68 M739.42,265.70L744.45,264.87 M739.42,340.68L744.45,340.53 M744.45,264.87L749.49,264.47 M744.45,340.53L749.49,340.35 M749.49,264.47L754.52,264.31 M749.49,340.35L754.52,340.18 M754.52,264.31L759.55,264.19 M754.52,340.18L759.55,340.04 M759.55,264.19L769.91,264.19 M759.55,340.04L769.91,339.83 M769.91,264.19L780.27,264.19 M769.91,339.83L780.27,339.66 M780.27,264.19L790.63,264.19 M780.27,339.66L790.63,339.49 M790.63,264.19L800.99,264.36 M790.63,339.49L800.99,339.26 M800.99,264.36L811.35,264.56 M800.99,339.26L811.35,338.93 M811.35,264.56L824.30,264.78 M811.35,338.93L824.30,338.45 M824.30,264.78L837.25,265.04 M824.30,338.45L837.25,337.96 M837.25,265.04L850.20,265.33 M837.25,337.96L850.20,337.37 M850.20,265.33L863.15,265.66 M850.20,337.37L863.15,336.61 M863.15,265.66L876.10,266.04 M863.15,336.61L876.10,335.60 M876.10,266.04L887.20,266.41 M876.10,335.60L887.20,334.53 M887.20,266.41L898.30,266.81 M887.20,334.53L898.30,333.29 M898.30,266.81L909.40,267.26 M898.30,333.29L909.40,331.85 M909.40,267.26L920.50,267.75 M909.40,331.85L920.50,330.16 M920.50,267.75L931.60,268.26 M920.50,330.16L931.60,328.20 M931.60,268.26L942.33,268.77 M931.60,328.20L942.33,325.97 M942.33,268.77L953.06,269.29 M942.33,325.97L953.06,323.43 M953.06,269.29L963.79,269.86 M953.06,323.43L963.79,320.67 M963.79,269.86L974.52,270.49 M963.79,320.67L974.52,317.79 M974.52,270.49L985.25,271.22 M974.52,317.79L985.25,314.88 M985.25,271.22L994.87,271.96 M985.25,314.88L994.87,312.18 M994.87,271.96L1004.49,272.79 M994.87,312.18L1004.49,309.34 M1004.49,272.79L1014.11,273.68 M1004.49,309.34L1014.11,306.43 M1014.11,273.68L1023.73,274.64 M1014.11,306.43L1023.73,303.56 M1023.73,274.64L1033.35,275.66 M1023.73,303.56L1033.35,300.82 M1033.35,275.66L1041.49,276.57 M1033.35,300.82L1041.49,298.63 M1041.49,276.57L1049.63,277.53 M1041.49,298.63L1049.63,296.53 M1049.63,277.53L1057.77,278.55 M1049.63,296.53L1057.77,294.49 M1057.77,278.55L1065.91,279.65 M1057.77,294.49L1065.91,292.47 M1065.91,279.65L1074.05,280.84 M1065.91,292.47L1074.05,290.46 M1074.05,280.84L1078.12,281.53 M1074.05,290.46L1078.12,289.47 M1078.12,281.53L1082.19,282.33 M1078.12,289.47L1082.19,288.50 M1082.19,282.33L1086.26,283.19 M1082.19,288.50L1086.26,287.55 M1086.26,283.19L1090.33,284.06 M1086.26,287.55L1090.33,286.60 M1090.33,284.06L1094.40,284.91 M1094.40,284.91L1094.40,284.91 M1094.40,284.91L1094.40,284.92 M1094.40,284.92L1094.40,284.93 M1094.40,284.93L1094.40,284.94 M1094.40,284.94L1094.40,284.96 M1094.40,284.96L1094.40,284.99 M1094.40,284.99L1094.40,285.01 M1094.40,285.01L1094.40,285.04 M1094.40,285.04L1094.40,285.08 M1094.40,285.08L1094.40,285.11 M1094.40,285.11L1094.40,285.15 M1094.40,285.15L1094.40,285.19 M1094.40,285.19L1094.40,285.23 M1094.40,285.23L1094.40,285.28 M1094.40,285.28L1094.40,285.33 M1094.40,285.33L1094.40,285.37 M1094.40,285.37L1094.40,285.41 M1094.40,285.41L1094.40,285.45 M1094.40,285.45L1094.40,285.48 M1094.40,285.48L1094.40,285.52 M1094.40,285.52L1094.40,285.55 M1094.40,285.55L1094.40,285.57 M1094.40,285.57L1094.40,285.60 M1094.40,285.60L1094.40,285.62 M1094.40,285.62L1094.40,285.63 M1094.40,285.63L1094.40,285.64 M1094.40,285.64L1094.40,285.65 M1094.40,285.65L1094.40,285.65 M1090.33,286.60L1094.40,285.65 M787.30,330.75L787.74,329.27 M787.74,329.27L789.04,327.83 M789.04,327.83L791.19,326.49 M791.19,326.49L794.17,325.26 M794.17,325.26L797.93,324.18 M797.93,324.18L802.44,323.25 M802.44,323.25L807.62,322.50 M807.62,322.50L813.42,321.95 M813.42,321.95L819.77,321.59 M819.77,321.59L826.57,321.43 M826.57,321.43L833.76,321.47 M833.76,321.47L841.24,321.67 M841.24,321.67L848.91,322.04 M848.91,322.04L856.68,322.54 M856.68,322.54L864.44,323.15 M864.44,323.15L872.11,323.84 M872.11,323.84L879.59,324.59 M879.59,324.59L886.78,325.38 M886.78,325.38L893.58,326.19 M893.58,326.19L899.93,326.99 M899.93,326.99L905.73,327.76 M905.73,327.76L910.91,328.48 M910.91,328.48L915.42,329.13 M915.42,329.13L919.18,329.70 M919.18,329.70L922.16,330.16 M922.16,330.16L924.31,330.51 M925.61,330.72L924.23,330.53 M924.31,330.51L925.61,330.72 M926.05,330.75L924.66,330.56 M926.05,330.75L926.05,330.83 M926.05,330.83L925.61,330.86 M925.61,330.86L924.31,331.07 M924.31,331.07L922.16,331.42 M922.16,331.42L919.18,331.88 M919.18,331.88L915.42,332.45 M915.42,332.45L910.91,333.10 M910.91,333.10L905.73,333.82 M905.73,333.82L899.93,334.59 M899.93,334.59L893.58,335.39 M893.58,335.39L886.78,336.20 M886.78,336.20L879.59,336.99 M879.59,336.99L872.11,337.74 M872.11,337.74L864.44,338.43 M864.44,338.43L856.68,339.04 M856.68,339.04L848.91,339.54 M848.91,339.54L841.24,339.91 M841.24,339.91L833.76,340.11 M833.76,340.11L826.57,340.15 M826.57,340.15L819.77,339.99 M819.77,339.99L813.42,339.63 M813.42,339.63L807.62,339.08 M807.62,339.08L802.44,338.33 M802.44,338.33L797.93,337.40 M797.93,337.40L794.17,336.32 M794.17,336.32L791.19,335.09 M791.19,335.09L789.04,333.75 M789.04,333.75L787.74,332.31 M787.74,332.31L787.30,330.83 M787.30,330.75L787.30,330.83 M821.73,321.74L828.23,321.59 M828.23,321.59L835.10,321.62 M835.10,321.62L842.24,321.82 M842.24,321.82L849.57,322.16 M849.57,322.16L856.99,322.63 M856.99,322.63L864.41,323.21 M864.41,323.21L871.74,323.86 M871.74,323.86L878.88,324.57 M878.88,324.57L885.75,325.31 M885.75,325.31L892.25,326.07 M892.25,326.07L898.32,326.82 M898.32,326.82L903.86,327.55 M903.86,327.55L908.81,328.23 M908.81,328.23L913.11,328.85 M913.11,328.85L916.71,329.38 M916.71,329.38L919.55,329.82 M919.55,329.82L921.61,330.14 M921.61,330.14L922.85,330.34 M924.23,330.53L922.85,330.34 M924.66,330.56L923.27,330.37 M817.09,322.03L822.98,321.70 M821.73,321.74L822.98,321.70 M923.27,330.37L921.61,330.01 M814.27,322.30L819.41,321.83 M817.09,322.03L819.41,321.83 M921.61,330.01L919.16,329.33 M809.04,323.28L812.82,322.54 M812.82,322.54L817.16,321.95 M814.27,322.30L817.16,321.95 M919.16,329.33L916.44,328.48 M809.37,323.39L812.34,322.59 M809.04,323.28L812.34,322.59 M916.44,328.48L913.47,327.42 M809.37,323.39L816.69,321.21 M913.47,327.42L906.44,324.62 M816.69,321.21L823.97,318.80 M906.44,324.62L899.17,321.61 M823.97,318.80L831.50,316.34 M899.17,321.61L891.64,318.54 M831.50,316.34L834.10,315.49 M891.64,318.54L889.20,317.48 M834.10,315.49L836.96,314.60 M836.96,314.60L838.38,314.24 M889.20,317.48L886.52,316.37 M838.38,314.24L841.76,313.45 M841.76,313.45L843.20,313.20 M843.20,313.20L844.86,312.99 M844.86,312.99L846.72,312.84 M846.72,312.84L848.75,312.74 M881.51,315.08L882.20,315.17 M886.52,316.37L882.76,315.21 M848.75,312.74L849.46,312.72 M849.46,312.72L851.49,312.68 M851.49,312.68L853.63,312.69 M853.63,312.69L855.86,312.74 M855.86,312.74L858.14,312.83 M858.14,312.83L860.46,312.96 M860.46,312.96L862.77,313.11 M862.77,313.11L865.06,313.28 M865.06,313.28L867.29,313.47 M867.29,313.47L869.43,313.67 M869.43,313.67L871.46,313.87 M871.46,313.87L873.35,314.07 M873.35,314.07L875.08,314.27 M875.08,314.27L876.62,314.45 M876.62,314.45L877.96,314.61 M877.96,314.61L879.09,314.76 M879.09,314.76L879.97,314.87 M881.51,315.08L879.97,314.87 M882.20,315.17L880.61,314.96 M882.76,315.21L881.13,314.99 M880.61,314.96L877.98,314.71 M881.13,314.99L878.43,314.73 M877.98,314.71L875.34,314.46 M875.34,314.46L875.63,314.47 M875.63,314.47L875.73,314.47 M878.43,314.73L875.73,314.47 M993.39,280.80L993.69,279.91 M993.69,279.91L994.59,279.02 M994.59,279.02L996.08,278.20 M996.08,278.20L998.14,277.45 M998.14,277.45L1000.73,276.78 M1003.84,276.21L1004.58,276.11 M1000.73,276.78L1003.84,276.21 M1089.22,280.80L1088.10,280.60 M1089.22,280.80L1089.22,280.88 M1089.22,280.88L1088.92,280.88 M1088.92,280.88L1088.02,281.01 M1088.02,281.01L1086.53,281.22 M1086.53,281.22L1084.47,281.51 M1084.47,281.51L1081.88,281.86 M1081.88,281.86L1078.77,282.26 M1078.77,282.26L1075.19,282.70 M1075.19,282.70L1071.18,283.18 M1071.18,283.18L1066.80,283.67 M1066.80,283.67L1062.09,284.16 M1062.09,284.16L1057.13,284.64 M1057.13,284.64L1051.97,285.11 M1051.97,285.11L1046.67,285.53 M1046.67,285.53L1041.30,285.91 M1041.30,285.91L1035.94,286.21 M1035.94,286.21L1030.64,286.44 M1030.64,286.44L1025.48,286.56 M1025.48,286.56L1020.52,286.58 M1020.52,286.58L1015.81,286.49 M1015.81,286.49L1011.43,286.27 M1011.43,286.27L1007.42,285.93 M1007.42,285.93L1003.84,285.47 M1003.84,285.47L1000.73,284.90 M1000.73,284.90L998.14,284.23 M998.14,284.23L996.08,283.48 M996.08,283.48L994.59,282.66 M994.59,282.66L993.69,281.77 M993.69,281.77L993.39,280.88 M993.39,280.80L993.39,280.88 M1004.58,276.11L1005.32,276.01 M1005.32,276.01L1008.75,275.57 M1008.75,275.57L1012.58,275.24 M1088.10,280.60L1086.99,280.40 M1012.58,275.24L1013.97,275.13 M1013.97,275.13L1017.98,274.93 M1086.99,280.40L1085.15,280.06 M1017.98,274.93L1021.65,274.82 M1085.15,280.06L1080.51,279.16 M1021.65,274.82L1026.05,274.68 M1080.51,279.16L1075.15,278.13 M1026.05,274.68L1030.89,274.58 M1030.89,274.58L1033.32,274.54 M1033.32,274.54L1035.89,274.55 M1035.89,274.55L1038.56,274.61 M1038.56,274.61L1041.30,274.71 M1041.30,274.71L1044.08,274.85 M1044.08,274.85L1046.86,275.02 M1046.86,275.02L1049.60,275.21 M1049.60,275.21L1052.27,275.42 M1052.27,275.42L1054.84,275.64 M1054.84,275.64L1057.27,275.86 M1057.27,275.86L1059.54,276.08 M1059.54,276.08L1061.61,276.30 M1061.61,276.30L1063.46,276.50 M1063.46,276.50L1065.07,276.68 M1065.07,276.68L1066.42,276.84 M1066.42,276.84L1067.48,276.97 M1067.48,276.97L1068.25,277.06 M1068.25,277.06L1068.71,277.10 M1075.15,278.13L1068.87,277.10 M1068.71,277.10L1067.11,276.98 M1068.87,277.10L1067.26,276.98 M1067.11,276.98L1064.61,276.86 M1067.26,276.98L1064.73,276.86 M1064.61,276.86L1062.10,276.73 M1062.10,276.73L1062.21,276.73 M1064.73,276.86L1062.21,276.73 M758.44,309.33L759.55,307.53 M758.44,338.19L759.55,339.99 M758.44,338.19L758.44,338.07 M758.44,338.07L758.44,337.70 M758.44,337.70L758.44,337.09 M758.44,337.09L758.44,336.26 M758.44,336.26L758.44,335.21 M758.44,335.21L758.44,333.96 M758.44,333.96L758.44,332.54 M758.44,332.54L758.44,330.97 M758.44,330.97L758.44,329.28 M758.44,329.28L758.44,327.49 M758.44,327.49L758.44,325.64 M758.44,325.64L758.44,323.76 M758.44,323.76L758.44,321.88 M758.44,321.88L758.44,320.03 M758.44,320.03L758.44,318.24 M758.44,318.24L758.44,316.54 M758.44,316.54L758.44,314.98 M758.44,314.98L758.44,313.56 M758.44,313.56L758.44,312.31 M758.44,312.31L758.44,311.26 M758.44,311.26L758.44,310.43 M758.44,310.43L758.44,309.82 M758.44,309.82L758.44,309.45 M758.44,309.33L758.44,309.45 M759.55,307.53L760.66,305.59 M759.55,339.99L760.66,341.93 M760.66,305.59L761.77,303.94 M760.66,341.93L761.77,343.58 M761.77,303.94L762.88,303.04 M761.77,343.58L762.88,344.48 M762.88,303.04L766.95,302.30 M762.88,344.48L766.95,345.22 M766.95,302.30L771.02,302.30 M766.95,345.22L771.02,345.22 M771.02,302.30L775.09,302.30 M771.02,345.22L775.09,345.22 M775.09,302.30L779.16,302.30 M775.09,345.22L779.16,345.22 M779.16,302.30L785.82,302.40 M779.16,345.22L785.82,345.09 M785.82,302.40L792.48,302.61 M785.82,345.09L792.48,344.84 M792.48,302.61L799.14,302.94 M792.48,344.84L799.14,344.51 M799.14,302.94L805.80,303.41 M799.14,344.51L805.80,344.11 M805.80,303.41L816.90,304.45 M805.80,344.11L816.90,343.41 M816.90,304.45L828.00,305.66 M816.90,343.41L828.00,342.67 M828.00,305.66L839.10,306.95 M828.00,342.67L839.10,341.81 M839.10,306.95L850.20,308.22 M839.10,341.81L850.20,340.78 M850.20,308.22L859.91,309.22 M850.20,340.78L859.91,339.81 M859.91,309.22L869.62,310.17 M859.91,339.81L869.62,338.75 M869.62,310.17L879.34,311.25 M869.62,338.75L879.34,337.42 M879.34,311.25L889.05,312.66 M879.34,337.42L889.05,335.60 M889.05,312.66L897.56,314.30 M889.05,335.60L897.56,333.40 M897.56,314.30L906.07,316.26 M897.56,333.40L906.07,330.70 M906.07,316.26L914.58,318.36 M906.07,330.70L914.58,327.76 M914.58,318.36L923.09,320.43 M914.58,327.76L923.09,324.87 M923.09,320.43L924.48,320.77 M923.09,324.87L924.48,324.37 M924.48,320.77L925.86,321.15 M924.48,324.37L925.86,323.81 M925.86,321.15L927.25,321.53 M925.86,323.81L927.25,323.22 M927.25,321.53L928.64,321.91 M927.25,323.22L928.64,322.65 M928.64,322.65L928.64,322.65 M928.64,322.65L928.64,322.64 M928.64,322.64L928.64,322.62 M928.64,322.62L928.64,322.60 M928.64,322.60L928.64,322.57 M928.64,322.57L928.64,322.54 M928.64,322.54L928.64,322.51 M928.64,322.51L928.64,322.47 M928.64,322.47L928.64,322.42 M928.64,322.42L928.64,322.38 M928.64,322.38L928.64,322.33 M928.64,322.33L928.64,322.28 M928.64,322.28L928.64,322.23 M928.64,322.23L928.64,322.18 M928.64,322.18L928.64,322.14 M928.64,322.14L928.64,322.09 M928.64,322.09L928.64,322.05 M928.64,322.05L928.64,322.02 M928.64,322.02L928.64,321.99 M928.64,321.99L928.64,321.96 M928.64,321.96L928.64,321.94 M928.64,321.94L928.64,321.92 M928.64,321.92L928.64,321.91 M928.64,321.91L928.64,321.91 M787.30,330.75L787.74,329.27 M787.74,329.27L789.04,327.83 M789.04,327.83L791.19,326.49 M791.19,326.49L794.17,325.26 M794.17,325.26L797.93,324.18 M797.93,324.18L802.44,323.25 M802.44,323.25L807.62,322.50 M807.62,322.50L813.42,321.95 M813.42,321.95L819.77,321.59 M819.77,321.59L826.57,321.43 M826.57,321.43L833.76,321.47 M833.76,321.47L841.24,321.67 M841.24,321.67L848.91,322.04 M848.91,322.04L856.68,322.54 M856.68,322.54L864.44,323.15 M864.44,323.15L872.11,323.84 M872.11,323.84L879.59,324.59 M879.59,324.59L886.78,325.38 M886.78,325.38L893.58,326.19 M893.58,326.19L899.93,326.99 M899.93,326.99L905.73,327.76 M905.73,327.76L910.91,328.48 M910.91,328.48L915.42,329.13 M915.42,329.13L919.18,329.70 M919.18,329.70L922.16,330.16 M922.16,330.16L924.31,330.51 M924.31,330.51L925.61,330.72 M925.61,330.72L924.23,330.53 M926.05,330.75L924.66,330.56 M926.05,330.75L926.05,330.83 M926.05,330.83L925.61,330.86 M925.61,330.86L924.31,331.07 M924.31,331.07L922.16,331.42 M922.16,331.42L919.18,331.88 M919.18,331.88L915.42,332.45 M915.42,332.45L910.91,333.10 M910.91,333.10L905.73,333.82 M905.73,333.82L899.93,334.59 M899.93,334.59L893.58,335.39 M893.58,335.39L886.78,336.20 M886.78,336.20L879.59,336.99 M879.59,336.99L872.11,337.74 M872.11,337.74L864.44,338.43 M864.44,338.43L856.68,339.04 M856.68,339.04L848.91,339.54 M848.91,339.54L841.24,339.91 M841.24,339.91L833.76,340.11 M833.76,340.11L826.57,340.15 M826.57,340.15L819.77,339.99 M819.77,339.99L813.42,339.63 M813.42,339.63L807.62,339.08 M807.62,339.08L802.44,338.33 M802.44,338.33L797.93,337.40 M797.93,337.40L794.17,336.32 M794.17,336.32L791.19,335.09 M791.19,335.09L789.04,333.75 M789.04,333.75L787.74,332.31 M787.74,332.31L787.30,330.83 M787.30,330.75L787.30,330.83 M821.73,321.74L828.23,321.59 M828.23,321.59L835.10,321.62 M835.10,321.62L842.24,321.82 M842.24,321.82L849.57,322.16 M849.57,322.16L856.99,322.63 M856.99,322.63L864.41,323.21 M864.41,323.21L871.74,323.86 M871.74,323.86L878.88,324.57 M878.88,324.57L885.75,325.31 M885.75,325.31L892.25,326.07 M892.25,326.07L898.32,326.82 M898.32,326.82L903.86,327.55 M903.86,327.55L908.81,328.23 M908.81,328.23L913.11,328.85 M913.11,328.85L916.71,329.38 M916.71,329.38L919.55,329.82 M919.55,329.82L921.61,330.14 M924.23,330.53L922.85,330.34 M921.61,330.14L922.85,330.34 M924.66,330.56L923.27,330.37 M821.73,321.74L822.98,321.70 M817.09,322.03L822.98,321.70 M923.27,330.37L921.61,330.01 M817.09,322.03L819.41,321.83 M814.27,322.30L819.41,321.83 M921.61,330.01L919.16,329.33 M809.04,323.28L812.82,322.54 M814.27,322.30L817.16,321.95 M812.82,322.54L817.16,321.95 M919.16,329.33L916.44,328.48 M809.04,323.28L812.34,322.59 M809.37,323.39L812.34,322.59 M916.44,328.48L913.47,327.42 M809.37,323.39L816.69,321.21 M913.47,327.42L906.44,324.62 M816.69,321.21L823.97,318.80 M906.44,324.62L899.17,321.61 M823.97,318.80L831.50,316.34 M899.17,321.61L891.64,318.54 M831.50,316.34L834.10,315.49 M891.64,318.54L889.20,317.48 M834.10,315.49L836.96,314.60 M836.96,314.60L838.38,314.24 M889.20,317.48L886.52,316.37 M838.38,314.24L841.76,313.45 M841.76,313.45L843.20,313.20 M843.20,313.20L844.86,312.99 M844.86,312.99L846.72,312.84 M846.72,312.84L848.75,312.74 M881.51,315.08L882.20,315.17 M886.52,316.37L882.76,315.21 M848.75,312.74L849.46,312.72 M849.46,312.72L851.49,312.68 M851.49,312.68L853.63,312.69 M853.63,312.69L855.86,312.74 M855.86,312.74L858.14,312.83 M858.14,312.83L860.46,312.96 M860.46,312.96L862.77,313.11 M862.77,313.11L865.06,313.28 M865.06,313.28L867.29,313.47 M867.29,313.47L869.43,313.67 M869.43,313.67L871.46,313.87 M871.46,313.87L873.35,314.07 M873.35,314.07L875.08,314.27 M875.08,314.27L876.62,314.45 M876.62,314.45L877.96,314.61 M877.96,314.61L879.09,314.76 M881.51,315.08L879.97,314.87 M879.09,314.76L879.97,314.87 M882.20,315.17L880.61,314.96 M882.76,315.21L881.13,314.99 M880.61,314.96L877.98,314.71 M881.13,314.99L878.43,314.73 M877.98,314.71L875.34,314.46 M875.34,314.46L875.63,314.47 M878.43,314.73L875.73,314.47 M875.63,314.47L875.73,314.47 M993.39,280.80L993.69,279.91 M993.69,279.91L994.59,279.02 M994.59,279.02L996.08,278.20 M996.08,278.20L998.14,277.45 M998.14,277.45L1000.73,276.78 M1000.73,276.78L1003.84,276.21 M1003.84,276.21L1004.58,276.11 M1089.22,280.80L1088.10,280.60 M1089.22,280.80L1089.22,280.88 M1089.22,280.88L1088.92,280.88 M1088.92,280.88L1088.02,281.01 M1088.02,281.01L1086.53,281.22 M1086.53,281.22L1084.47,281.51 M1084.47,281.51L1081.88,281.86 M1081.88,281.86L1078.77,282.26 M1078.77,282.26L1075.19,282.70 M1075.19,282.70L1071.18,283.18 M1071.18,283.18L1066.80,283.67 M1066.80,283.67L1062.09,284.16 M1062.09,284.16L1057.13,284.64 M1057.13,284.64L1051.97,285.11 M1051.97,285.11L1046.67,285.53 M1046.67,285.53L1041.30,285.91 M1041.30,285.91L1035.94,286.21 M1035.94,286.21L1030.64,286.44 M1030.64,286.44L1025.48,286.56 M1025.48,286.56L1020.52,286.58 M1020.52,286.58L1015.81,286.49 M1015.81,286.49L1011.43,286.27 M1011.43,286.27L1007.42,285.93 M1007.42,285.93L1003.84,285.47 M1003.84,285.47L1000.73,284.90 M1000.73,284.90L998.14,284.23 M998.14,284.23L996.08,283.48 M996.08,283.48L994.59,282.66 M994.59,282.66L993.69,281.77 M993.69,281.77L993.39,280.88 M993.39,280.80L993.39,280.88 M1004.58,276.11L1005.32,276.01 M1005.32,276.01L1008.75,275.57 M1008.75,275.57L1012.58,275.24 M1088.10,280.60L1086.99,280.40 M1012.58,275.24L1013.97,275.13 M1013.97,275.13L1017.98,274.93 M1086.99,280.40L1085.15,280.06 M1017.98,274.93L1021.65,274.82 M1085.15,280.06L1080.51,279.16 M1021.65,274.82L1026.05,274.68 M1080.51,279.16L1075.15,278.13 M1026.05,274.68L1030.89,274.58 M1030.89,274.58L1033.32,274.54 M1033.32,274.54L1035.89,274.55 M1035.89,274.55L1038.56,274.61 M1038.56,274.61L1041.30,274.71 M1041.30,274.71L1044.08,274.85 M1044.08,274.85L1046.86,275.02 M1046.86,275.02L1049.60,275.21 M1049.60,275.21L1052.27,275.42 M1052.27,275.42L1054.84,275.64 M1054.84,275.64L1057.27,275.86 M1057.27,275.86L1059.54,276.08 M1059.54,276.08L1061.61,276.30 M1061.61,276.30L1063.46,276.50 M1063.46,276.50L1065.07,276.68 M1065.07,276.68L1066.42,276.84 M1066.42,276.84L1067.48,276.97 M1067.48,276.97L1068.25,277.06 M1068.25,277.06L1068.71,277.10 M1075.15,278.13L1068.87,277.10 M1068.71,277.10L1067.11,276.98 M1068.87,277.10L1067.26,276.98 M1067.11,276.98L1064.61,276.86 M1067.26,276.98L1064.73,276.86 M1064.61,276.86L1062.10,276.73 M1064.73,276.86L1062.21,276.73 M1062.10,276.73L1062.21,276.73 M758.44,309.33L759.55,307.53 M758.44,338.19L759.55,339.99 M758.44,338.19L758.44,338.07 M758.44,338.07L758.44,337.70 M758.44,337.70L758.44,337.09 M758.44,337.09L758.44,336.26 M758.44,336.26L758.44,335.21 M758.44,335.21L758.44,333.96 M758.44,333.96L758.44,332.54 M758.44,332.54L758.44,330.97 M758.44,330.97L758.44,329.28 M758.44,329.28L758.44,327.49 M758.44,327.49L758.44,325.64 M758.44,325.64L758.44,323.76 M758.44,323.76L758.44,321.88 M758.44,321.88L758.44,320.03 M758.44,320.03L758.44,318.24 M758.44,318.24L758.44,316.54 M758.44,316.54L758.44,314.98 M758.44,314.98L758.44,313.56 M758.44,313.56L758.44,312.31 M758.44,312.31L758.44,311.26 M758.44,311.26L758.44,310.43 M758.44,310.43L758.44,309.82 M758.44,309.82L758.44,309.45 M758.44,309.33L758.44,309.45 M759.55,307.53L760.66,305.59 M759.55,339.99L760.66,341.93 M760.66,305.59L761.77,303.94 M760.66,341.93L761.77,343.58 M761.77,303.94L762.88,303.04 M761.77,343.58L762.88,344.48 M762.88,303.04L766.95,302.30 M762.88,344.48L766.95,345.22 M766.95,302.30L771.02,302.30 M766.95,345.22L771.02,345.22 M771.02,302.30L775.09,302.30 M771.02,345.22L775.09,345.22 M775.09,302.30L779.16,302.30 M775.09,345.22L779.16,345.22 M779.16,302.30L785.82,302.40 M779.16,345.22L785.82,345.09 M785.82,302.40L792.48,302.61 M785.82,345.09L792.48,344.84 M792.48,302.61L799.14,302.94 M792.48,344.84L799.14,344.51 M799.14,302.94L805.80,303.41 M799.14,344.51L805.80,344.11 M805.80,303.41L816.90,304.45 M805.80,344.11L816.90,343.41 M816.90,304.45L828.00,305.66 M816.90,343.41L828.00,342.67 M828.00,305.66L839.10,306.95 M828.00,342.67L839.10,341.81 M839.10,306.95L850.20,308.22 M839.10,341.81L850.20,340.78 M850.20,308.22L859.91,309.22 M850.20,340.78L859.91,339.81 M859.91,309.22L869.62,310.17 M859.91,339.81L869.62,338.75 M869.62,310.17L879.34,311.25 M869.62,338.75L879.34,337.42 M879.34,311.25L889.05,312.66 M879.34,337.42L889.05,335.60 M889.05,312.66L897.56,314.30 M889.05,335.60L897.56,333.40 M897.56,314.30L906.07,316.26 M897.56,333.40L906.07,330.70 M906.07,316.26L914.58,318.36 M906.07,330.70L914.58,327.76 M914.58,318.36L923.09,320.43 M914.58,327.76L923.09,324.87 M923.09,320.43L924.48,320.77 M923.09,324.87L924.48,324.37 M924.48,320.77L925.86,321.15 M924.48,324.37L925.86,323.81 M925.86,321.15L927.25,321.53 M925.86,323.81L927.25,323.22 M927.25,321.53L928.64,321.91 M927.25,323.22L928.64,322.65 M928.64,322.65L928.64,322.65 M928.64,322.65L928.64,322.64 M928.64,322.64L928.64,322.62 M928.64,322.62L928.64,322.60 M928.64,322.60L928.64,322.57 M928.64,322.57L928.64,322.54 M928.64,322.54L928.64,322.51 M928.64,322.51L928.64,322.47 M928.64,322.47L928.64,322.42 M928.64,322.42L928.64,322.38 M928.64,322.38L928.64,322.33 M928.64,322.33L928.64,322.28 M928.64,322.28L928.64,322.23 M928.64,322.23L928.64,322.18 M928.64,322.18L928.64,322.14 M928.64,322.14L928.64,322.09 M928.64,322.09L928.64,322.05 M928.64,322.05L928.64,322.02 M928.64,322.02L928.64,321.99 M928.64,321.99L928.64,321.96 M928.64,321.96L928.64,321.94 M928.64,321.94L928.64,321.92 M928.64,321.92L928.64,321.91 M928.64,321.91L928.64,321.91 M982.66,290.46L989.77,284.29 M982.66,290.46L983.01,290.46 M983.01,290.46L984.04,290.46 M984.04,290.46L985.75,290.46 M985.75,290.46L988.12,290.46 M988.12,290.46L991.11,290.46 M991.11,290.46L994.69,290.46 M994.69,290.46L998.81,290.46 M998.81,290.46L1003.42,290.46 M1003.42,290.46L1008.46,290.46 M1008.46,290.46L1013.87,290.46 M1013.87,290.46L1019.58,290.46 M1019.58,290.46L1025.52,290.46 M1025.52,290.46L1031.62,290.46 M1031.62,290.46L1037.79,290.46 M1037.79,290.46L1043.96,290.46 M1043.96,290.46L1050.06,290.46 M1050.06,290.46L1056.00,290.46 M1056.00,290.46L1061.71,290.46 M1061.71,290.46L1067.12,290.46 M1067.12,290.46L1072.16,290.46 M1072.16,290.46L1076.77,290.46 M1076.77,290.46L1080.89,290.46 M1080.89,290.46L1084.47,290.46 M1084.47,290.46L1087.46,290.46 M1087.46,290.46L1089.83,290.46 M1089.83,290.46L1091.54,290.46 M1091.54,290.46L1092.57,290.46 M1092.92,290.46L1092.88,284.29 M1092.57,290.46L1092.92,290.46 M989.77,284.29L996.89,278.13 M1092.88,284.29L1092.83,278.13 M996.89,278.13L1003.38,271.96 M1092.83,278.13L1092.55,271.96 M1003.38,271.96L1012.28,262.34 M1092.55,271.96L1091.62,262.34 M1012.28,262.34L1020.56,252.72 M1091.62,262.34L1090.44,252.72 M1020.56,252.72L1028.54,243.10 M1090.44,252.72L1089.22,243.10 M1028.54,243.10L1034.33,235.70 M1089.22,243.10L1088.31,235.70 M1034.33,235.70L1039.83,228.30 M1088.31,235.70L1087.35,228.30 M1039.83,228.30L1045.56,220.90 M1087.35,228.30L1086.26,220.90 M1045.56,220.90L1047.63,218.31 M1086.26,220.90L1085.94,218.31 M1047.63,218.31L1049.94,215.72 M1085.94,218.31L1085.49,215.72 M1049.94,215.72L1052.96,213.13 M1085.49,215.72L1084.41,213.13 M1052.96,213.13L1055.07,212.02 M1084.41,213.13L1083.22,212.02 M1055.07,212.02L1057.90,210.91 M1083.22,212.02L1081.41,210.91 M1057.90,210.91L1060.73,209.80 M1060.73,209.80L1060.79,209.80 M1060.79,209.80L1060.97,209.80 M1060.97,209.80L1061.26,209.80 M1061.26,209.80L1061.66,209.80 M1061.66,209.80L1062.18,209.80 M1062.18,209.80L1062.79,209.80 M1062.79,209.80L1063.49,209.80 M1063.49,209.80L1064.28,209.80 M1064.28,209.80L1065.15,209.80 M1065.15,209.80L1066.07,209.80 M1066.07,209.80L1067.05,209.80 M1067.05,209.80L1068.07,209.80 M1068.07,209.80L1069.11,209.80 M1069.11,209.80L1070.17,209.80 M1070.17,209.80L1071.22,209.80 M1071.22,209.80L1072.26,209.80 M1072.26,209.80L1073.28,209.80 M1073.28,209.80L1074.26,209.80 M1074.26,209.80L1075.18,209.80 M1075.18,209.80L1076.05,209.80 M1076.05,209.80L1076.84,209.80 M1076.84,209.80L1077.54,209.80 M1077.54,209.80L1078.15,209.80 M1078.15,209.80L1078.67,209.80 M1078.67,209.80L1079.07,209.80 M1079.07,209.80L1079.36,209.80 M1079.36,209.80L1079.54,209.80 M1079.54,209.80L1079.60,209.80 M1081.41,210.91L1079.60,209.80" fill="none" stroke="#536265" stroke-width=".85"/><text x="620" y="480" fill="#323b3b" font-size="14" font-family="Microsoft YaHei,sans-serif">侧视 / SIDE</text><path d="M624.72,786.77L620.00,787.00 M620.00,787.00L615.28,786.77 M624.72,786.77L624.88,786.75 M615.28,786.77L615.12,786.75 M629.67,785.97L625.03,786.74 M624.88,786.75L625.03,786.74 M615.12,786.75L614.97,786.74 M614.97,786.74L610.33,785.97 M629.67,785.97L629.94,785.91 M610.33,785.97L610.06,785.91 M629.94,785.91L630.19,785.85 M630.19,785.85L625.30,786.71 M614.70,786.71L609.81,785.85 M610.06,785.91L609.81,785.85 M643.85,779.71L639.64,782.30 M639.64,782.30L635.15,784.34 M635.15,784.34L630.40,785.81 M630.40,785.81L625.41,786.70 M625.30,786.71L625.41,786.70 M614.70,786.71L614.59,786.70 M614.59,786.70L609.60,785.81 M609.60,785.81L604.85,784.34 M604.85,784.34L600.36,782.30 M600.36,782.30L596.15,779.71 M648.16,776.27L644.21,779.44 M643.85,779.71L644.21,779.44 M596.15,779.71L595.79,779.44 M595.79,779.44L591.84,776.27 M652.11,772.29L648.48,775.98 M648.16,776.27L648.48,775.98 M591.84,776.27L591.52,775.98 M591.52,775.98L587.89,772.29 M652.11,772.29L652.39,772.01 M587.89,772.29L587.61,772.01 M655.85,767.62L652.58,771.78 M652.39,772.01L652.58,771.78 M587.61,772.01L587.42,771.78 M587.42,771.78L584.15,767.62 M665.50,734.75L665.23,741.12 M665.23,741.12L664.41,747.00 M664.41,747.00L663.06,752.59 M663.06,752.59L661.20,757.89 M661.20,757.89L658.83,762.85 M658.83,762.85L655.99,767.43 M655.85,767.62L655.99,767.43 M584.15,767.62L584.01,767.43 M584.01,767.43L581.17,762.85 M581.17,762.85L578.80,757.89 M578.80,757.89L576.94,752.59 M576.94,752.59L575.59,747.00 M575.59,747.00L574.77,741.12 M574.77,741.12L574.50,734.75 M665.50,734.75L665.50,734.61 M574.50,734.75L574.50,734.61 M665.50,734.61L665.50,734.49 M574.50,734.61L574.50,734.49 M620.00,683.50L625.65,683.80 M625.65,683.80L630.88,684.72 M630.88,684.72L635.84,686.22 M635.84,686.22L640.54,688.31 M640.54,688.31L644.95,690.96 M644.95,690.96L649.01,694.13 M649.01,694.13L652.71,697.80 M652.71,697.80L655.99,701.93 M655.99,701.93L658.83,706.48 M658.83,706.48L661.20,711.41 M661.20,711.41L663.06,716.66 M663.06,716.66L664.41,722.21 M664.41,722.21L665.23,728.05 M665.50,734.49L665.50,734.38 M574.50,734.49L574.50,734.38 M574.77,728.05L575.59,722.21 M575.59,722.21L576.94,716.66 M576.94,716.66L578.80,711.41 M578.80,711.41L581.17,706.48 M581.17,706.48L584.01,701.93 M584.01,701.93L587.29,697.80 M587.29,697.80L590.99,694.13 M590.99,694.13L595.05,690.96 M595.05,690.96L599.46,688.31 M599.46,688.31L604.16,686.22 M604.16,686.22L609.12,684.72 M609.12,684.72L614.35,683.80 M620.00,683.50L614.35,683.80 M664.41,722.24L665.23,728.05 M665.23,728.05L665.23,728.05 M665.50,734.38L665.50,734.34 M574.50,734.38L574.50,734.34 M574.77,728.05L574.77,728.05 M574.77,728.05L575.59,722.24 M664.41,722.24L664.41,722.24 M664.41,722.24L665.23,728.01 M665.23,728.01L665.50,734.25 M665.50,734.34L665.50,734.25 M574.50,734.34L574.50,734.25 M574.50,734.25L574.77,728.01 M574.77,728.01L575.59,722.24 M575.59,722.24L575.59,722.24 M620.00,760.86L597.50,760.96 M620.00,760.86L620.00,760.90 M620.00,760.90L620.00,761.18 M620.00,761.18L620.00,761.67 M620.00,761.67L620.00,762.35 M620.00,762.35L620.00,763.17 M620.00,763.17L620.00,764.11 M620.00,764.11L620.00,765.13 M620.00,765.13L620.00,766.19 M620.00,766.19L620.00,767.28 M620.00,767.28L620.00,768.36 M620.00,768.36L620.00,769.40 M620.00,769.40L620.00,770.38 M620.00,770.38L620.00,771.26 M620.00,771.26L620.00,772.03 M620.00,772.03L620.00,772.66 M620.00,772.66L620.00,773.12 M620.00,773.12L620.00,773.40 M620.00,773.40L620.00,773.45 M620.00,773.45L620.00,773.55 M620.00,773.55L620.00,773.60 M620.00,773.60L620.00,773.88 M620.00,773.88L620.00,774.34 M620.00,774.34L620.00,774.97 M620.00,774.97L620.00,775.74 M620.00,775.74L620.00,776.62 M620.00,776.62L620.00,777.60 M620.00,777.60L620.00,778.64 M620.00,778.64L620.00,779.72 M620.00,779.72L620.00,780.81 M620.00,780.81L620.00,781.87 M620.00,781.87L620.00,782.89 M620.00,782.89L620.00,783.83 M620.00,783.83L620.00,784.65 M620.00,784.65L620.00,785.33 M620.00,785.33L620.00,785.82 M620.00,785.82L620.00,786.10 M620.00,786.14L597.50,785.52 M620.00,786.10L620.00,786.14 M597.50,760.96L575.00,761.07 M597.50,785.52L575.00,784.90 M575.00,761.07L552.50,761.03 M575.00,784.90L552.50,783.97 M552.50,761.03L525.00,760.80 M552.50,783.97L525.00,782.36 M525.00,760.80L497.50,760.40 M525.00,782.36L497.50,780.46 M497.50,760.40L470.00,759.68 M497.50,780.46L470.00,778.32 M470.00,759.68L408.33,757.32 M470.00,778.32L408.33,773.11 M408.33,757.32L346.67,754.62 M346.67,761.09L346.67,761.09 M346.67,761.19L346.67,761.19 M408.33,773.11L346.67,767.67 M346.67,754.62L285.00,751.87 M346.67,761.09L285.00,756.95 M346.67,761.09L285.00,756.95 M346.67,761.19L285.00,757.05 M346.67,761.19L285.00,757.05 M346.67,767.67L285.00,762.13 M285.00,751.87L264.17,750.91 M285.00,756.95L264.17,755.52 M285.00,756.95L264.17,755.52 M285.00,757.05L264.17,755.62 M285.00,757.05L264.17,755.62 M285.00,762.13L264.17,760.22 M264.17,750.91L243.33,749.93 M264.17,755.52L243.33,754.01 M264.17,755.52L243.33,754.01 M264.17,755.62L243.33,754.11 M264.17,755.62L243.33,754.11 M264.17,760.22L243.33,758.19 M243.33,749.93L222.50,749.05 M243.33,754.01L222.50,752.45 M243.33,754.01L222.50,752.45 M243.33,754.11L222.50,752.55 M243.33,754.11L222.50,752.55 M243.33,758.19L222.50,755.95 M222.50,749.05L219.17,749.02 M222.50,752.45L219.17,752.15 M222.50,752.45L219.17,752.15 M222.50,752.55L219.17,752.25 M222.50,752.55L219.17,752.25 M222.50,755.95L219.17,755.38 M219.17,749.02L215.83,749.10 M219.17,752.15L215.83,751.80 M219.17,752.15L215.83,751.80 M219.17,752.25L215.83,751.90 M219.17,752.25L215.83,751.90 M219.17,755.38L215.83,754.60 M215.83,749.10L212.50,749.16 M212.50,749.16L212.50,749.17 M212.50,749.17L212.50,749.22 M212.50,749.22L212.50,749.32 M212.50,749.32L212.50,749.44 M212.50,749.44L212.50,749.59 M212.50,749.59L212.50,749.77 M212.50,749.77L212.50,749.95 M212.50,749.95L212.50,750.15 M212.50,750.15L212.50,750.35 M212.50,750.35L212.50,750.55 M212.50,750.55L212.50,750.74 M212.50,750.74L212.50,750.92 M212.50,750.92L212.50,751.09 M212.50,751.09L212.50,751.23 M212.50,751.23L212.50,751.34 M212.50,751.34L212.50,751.43 M212.50,751.43L212.50,751.45 M215.83,751.80L212.50,751.45 M215.83,751.80L212.50,751.45 M212.50,751.45L212.50,751.55 M215.83,751.90L212.50,751.55 M215.83,751.90L212.50,751.55 M212.50,751.55L212.50,751.57 M212.50,751.57L212.50,751.66 M212.50,751.66L212.50,751.77 M212.50,751.77L212.50,751.91 M212.50,751.91L212.50,752.08 M212.50,752.08L212.50,752.26 M212.50,752.26L212.50,752.45 M212.50,752.45L212.50,752.65 M212.50,752.65L212.50,752.85 M212.50,752.85L212.50,753.05 M212.50,753.05L212.50,753.23 M212.50,753.23L212.50,753.41 M212.50,753.41L212.50,753.56 M212.50,753.56L212.50,753.68 M212.50,753.68L212.50,753.78 M212.50,753.78L212.50,753.83 M212.50,753.83L212.50,753.84 M215.83,754.60L212.50,753.84 M620.00,698.24L605.00,698.13 M620.00,698.24L620.00,698.26 M620.00,698.26L620.00,698.44 M620.00,698.44L620.00,698.74 M620.00,698.74L620.00,699.15 M620.00,699.15L620.00,699.66 M620.00,699.66L620.00,700.23 M620.00,700.23L620.00,700.86 M620.00,700.86L620.00,701.51 M620.00,701.51L620.00,702.18 M620.00,702.18L620.00,702.84 M620.00,702.84L620.00,703.48 M620.00,703.48L620.00,704.08 M620.00,704.08L620.00,704.63 M620.00,704.63L620.00,705.10 M620.00,705.10L620.00,705.48 M620.00,705.48L620.00,705.77 M620.00,705.77L620.00,705.94 M620.00,705.94L620.00,705.95 M620.00,705.95L620.00,706.05 M620.00,706.05L620.00,706.06 M620.00,706.06L620.00,706.23 M620.00,706.23L620.00,706.52 M620.00,706.52L620.00,706.90 M620.00,706.90L620.00,707.37 M620.00,707.37L620.00,707.92 M620.00,707.92L620.00,708.52 M620.00,708.52L620.00,709.16 M620.00,709.16L620.00,709.82 M620.00,709.82L620.00,710.49 M620.00,710.49L620.00,711.14 M620.00,711.14L620.00,711.77 M620.00,711.77L620.00,712.34 M620.00,712.34L620.00,712.85 M620.00,712.85L620.00,713.26 M620.00,713.26L620.00,713.56 M620.00,713.56L620.00,713.74 M620.00,713.76L605.00,713.32 M620.00,713.74L620.00,713.76 M605.00,698.13L590.00,698.03 M605.00,713.32L590.00,712.88 M590.00,698.03L575.00,697.90 M590.00,712.88L575.00,712.10 M575.00,697.90L548.33,697.77 M548.33,703.74L548.33,703.74 M548.33,703.84L548.33,703.84 M575.00,712.10L548.33,709.80 M548.33,697.77L521.67,697.60 M548.33,703.74L521.67,702.34 M548.33,703.74L521.67,702.34 M548.33,703.84L521.67,702.44 M548.33,703.84L521.67,702.44 M548.33,709.80L521.67,707.19 M521.67,697.60L495.00,697.49 M521.67,702.34L495.00,700.95 M521.67,702.34L495.00,700.95 M521.67,702.44L495.00,701.05 M521.67,702.44L495.00,701.05 M521.67,707.19L495.00,704.51 M495.00,697.49L491.67,697.60 M495.00,700.95L491.67,700.78 M495.00,700.95L491.67,700.78 M495.00,701.05L491.67,700.88 M495.00,701.05L491.67,700.88 M495.00,704.51L491.67,704.07 M491.67,697.60L488.33,697.84 M491.67,700.78L488.33,700.62 M491.67,700.78L488.33,700.62 M491.67,700.88L488.33,700.72 M491.67,700.88L488.33,700.72 M491.67,704.07L488.33,703.49 M488.33,697.84L485.00,698.08 M485.00,698.08L485.00,698.09 M485.00,698.09L485.00,698.14 M485.00,698.14L485.00,698.23 M485.00,698.23L485.00,698.36 M485.00,698.36L485.00,698.52 M485.00,698.52L485.00,698.70 M485.00,698.70L485.00,698.90 M485.00,698.90L485.00,699.10 M485.00,699.10L485.00,699.31 M485.00,699.31L485.00,699.51 M485.00,699.51L485.00,699.71 M485.00,699.71L485.00,699.90 M485.00,699.90L485.00,700.07 M485.00,700.07L485.00,700.22 M485.00,700.22L485.00,700.34 M485.00,700.34L485.00,700.43 M485.00,700.43L485.00,700.45 M488.33,700.62L485.00,700.45 M488.33,700.62L485.00,700.45 M485.00,700.45L485.00,700.55 M488.33,700.72L485.00,700.55 M488.33,700.72L485.00,700.55 M485.00,700.55L485.00,700.57 M485.00,700.57L485.00,700.66 M485.00,700.66L485.00,700.78 M485.00,700.78L485.00,700.93 M485.00,700.93L485.00,701.10 M485.00,701.10L485.00,701.29 M485.00,701.29L485.00,701.49 M485.00,701.49L485.00,701.69 M485.00,701.69L485.00,701.90 M485.00,701.90L485.00,702.10 M485.00,702.10L485.00,702.30 M485.00,702.30L485.00,702.48 M485.00,702.48L485.00,702.64 M485.00,702.64L485.00,702.77 M485.00,702.77L485.00,702.86 M485.00,702.86L485.00,702.91 M485.00,702.91L485.00,702.92 M488.33,703.49L485.00,702.92 M480.00,735.00L483.79,735.25 M483.79,735.25L487.51,735.99 M487.51,735.99L491.10,737.21 M491.10,737.21L494.50,738.89 M494.50,738.89L497.65,740.99 M497.65,740.99L500.51,743.49 M500.51,743.49L503.01,746.35 M503.01,746.35L505.11,749.50 M505.11,749.50L506.79,752.90 M506.79,752.90L508.01,756.49 M508.01,756.49L508.75,760.21 M508.75,760.21L509.00,764.00 M509.00,764.00L508.75,767.79 M508.75,767.79L508.01,771.51 M508.01,771.51L506.79,775.10 M506.79,775.10L505.11,778.50 M505.11,778.50L503.01,781.65 M503.01,781.65L500.51,784.51 M500.51,784.51L497.65,787.01 M497.65,787.01L494.50,789.11 M494.50,789.11L491.10,790.79 M491.10,790.79L487.51,792.01 M487.51,792.01L483.79,792.75 M483.79,792.75L480.00,793.00 M480.00,793.00L476.21,792.75 M476.21,792.75L472.49,792.01 M472.49,792.01L468.90,790.79 M468.90,790.79L465.50,789.11 M465.50,789.11L462.35,787.01 M462.35,787.01L459.49,784.51 M459.49,784.51L456.99,781.65 M456.99,781.65L454.89,778.50 M454.89,778.50L453.21,775.10 M453.21,775.10L451.99,771.51 M451.99,771.51L451.25,767.79 M451.25,767.79L451.00,764.00 M451.00,764.00L451.25,760.21 M451.25,760.21L451.99,756.49 M451.99,756.49L453.21,752.90 M453.21,752.90L454.89,749.50 M454.89,749.50L456.99,746.35 M456.99,746.35L459.49,743.49 M459.49,743.49L462.35,740.99 M462.35,740.99L465.50,738.89 M465.50,738.89L468.90,737.21 M468.90,737.21L472.49,735.99 M472.49,735.99L476.21,735.25 M480.00,735.00L476.21,735.25 M620.00,760.86L642.50,760.96 M620.00,760.86L620.00,760.90 M620.00,760.90L620.00,761.18 M620.00,761.18L620.00,761.67 M620.00,761.67L620.00,762.35 M620.00,762.35L620.00,763.17 M620.00,763.17L620.00,764.11 M620.00,764.11L620.00,765.13 M620.00,765.13L620.00,766.19 M620.00,766.19L620.00,767.28 M620.00,767.28L620.00,768.36 M620.00,768.36L620.00,769.40 M620.00,769.40L620.00,770.38 M620.00,770.38L620.00,771.26 M620.00,771.26L620.00,772.03 M620.00,772.03L620.00,772.66 M620.00,772.66L620.00,773.12 M620.00,773.12L620.00,773.40 M620.00,773.40L620.00,773.45 M620.00,773.45L620.00,773.55 M620.00,773.55L620.00,773.60 M620.00,773.60L620.00,773.88 M620.00,773.88L620.00,774.34 M620.00,774.34L620.00,774.97 M620.00,774.97L620.00,775.74 M620.00,775.74L620.00,776.62 M620.00,776.62L620.00,777.60 M620.00,777.60L620.00,778.64 M620.00,778.64L620.00,779.72 M620.00,779.72L620.00,780.81 M620.00,780.81L620.00,781.87 M620.00,781.87L620.00,782.89 M620.00,782.89L620.00,783.83 M620.00,783.83L620.00,784.65 M620.00,784.65L620.00,785.33 M620.00,785.33L620.00,785.82 M620.00,785.82L620.00,786.10 M620.00,786.10L620.00,786.14 M620.00,786.14L642.50,785.52 M642.50,760.96L665.00,761.07 M642.50,785.52L665.00,784.90 M665.00,761.07L687.50,761.03 M665.00,784.90L687.50,783.97 M687.50,761.03L715.00,760.80 M687.50,783.97L715.00,782.36 M715.00,760.80L742.50,760.40 M715.00,782.36L742.50,780.46 M742.50,760.40L770.00,759.68 M742.50,780.46L770.00,778.32 M770.00,759.68L831.67,757.32 M770.00,778.32L831.67,773.11 M831.67,757.32L893.33,754.62 M893.33,761.09L893.33,761.09 M893.33,761.19L893.33,761.19 M831.67,773.11L893.33,767.67 M893.33,754.62L955.00,751.87 M893.33,761.09L955.00,756.95 M893.33,761.09L955.00,756.95 M893.33,761.19L955.00,757.05 M893.33,761.19L955.00,757.05 M893.33,767.67L955.00,762.13 M955.00,751.87L975.83,750.91 M955.00,756.95L975.83,755.52 M955.00,756.95L975.83,755.52 M955.00,757.05L975.83,755.62 M955.00,757.05L975.83,755.62 M955.00,762.13L975.83,760.22 M975.83,750.91L996.67,749.93 M975.83,755.52L996.67,754.01 M975.83,755.52L996.67,754.01 M975.83,755.62L996.67,754.11 M975.83,755.62L996.67,754.11 M975.83,760.22L996.67,758.19 M996.67,749.93L1017.50,749.05 M996.67,754.01L1017.50,752.45 M996.67,754.01L1017.50,752.45 M996.67,754.11L1017.50,752.55 M996.67,754.11L1017.50,752.55 M996.67,758.19L1017.50,755.95 M1017.50,749.05L1020.83,749.02 M1017.50,752.45L1020.83,752.15 M1017.50,752.45L1020.83,752.15 M1017.50,752.55L1020.83,752.25 M1017.50,752.55L1020.83,752.25 M1017.50,755.95L1020.83,755.38 M1020.83,749.02L1024.17,749.10 M1020.83,752.15L1024.17,751.80 M1020.83,752.15L1024.17,751.80 M1020.83,752.25L1024.17,751.90 M1020.83,752.25L1024.17,751.90 M1020.83,755.38L1024.17,754.60 M1024.17,749.10L1027.50,749.16 M1027.50,749.16L1027.50,749.17 M1027.50,749.17L1027.50,749.22 M1027.50,749.22L1027.50,749.32 M1027.50,749.32L1027.50,749.44 M1027.50,749.44L1027.50,749.59 M1027.50,749.59L1027.50,749.77 M1027.50,749.77L1027.50,749.95 M1027.50,749.95L1027.50,750.15 M1027.50,750.15L1027.50,750.35 M1027.50,750.35L1027.50,750.55 M1027.50,750.55L1027.50,750.74 M1027.50,750.74L1027.50,750.92 M1027.50,750.92L1027.50,751.09 M1027.50,751.09L1027.50,751.23 M1027.50,751.23L1027.50,751.34 M1027.50,751.34L1027.50,751.43 M1024.17,751.80L1027.50,751.45 M1027.50,751.43L1027.50,751.45 M1024.17,751.80L1027.50,751.45 M1024.17,751.90L1027.50,751.55 M1027.50,751.45L1027.50,751.55 M1024.17,751.90L1027.50,751.55 M1027.50,751.55L1027.50,751.57 M1027.50,751.57L1027.50,751.66 M1027.50,751.66L1027.50,751.77 M1027.50,751.77L1027.50,751.91 M1027.50,751.91L1027.50,752.08 M1027.50,752.08L1027.50,752.26 M1027.50,752.26L1027.50,752.45 M1027.50,752.45L1027.50,752.65 M1027.50,752.65L1027.50,752.85 M1027.50,752.85L1027.50,753.05 M1027.50,753.05L1027.50,753.23 M1027.50,753.23L1027.50,753.41 M1027.50,753.41L1027.50,753.56 M1027.50,753.56L1027.50,753.68 M1027.50,753.68L1027.50,753.78 M1027.50,753.78L1027.50,753.83 M1024.17,754.60L1027.50,753.84 M1027.50,753.83L1027.50,753.84 M620.00,698.24L635.00,698.13 M620.00,698.24L620.00,698.26 M620.00,698.26L620.00,698.44 M620.00,698.44L620.00,698.74 M620.00,698.74L620.00,699.15 M620.00,699.15L620.00,699.66 M620.00,699.66L620.00,700.23 M620.00,700.23L620.00,700.86 M620.00,700.86L620.00,701.51 M620.00,701.51L620.00,702.18 M620.00,702.18L620.00,702.84 M620.00,702.84L620.00,703.48 M620.00,703.48L620.00,704.08 M620.00,704.08L620.00,704.63 M620.00,704.63L620.00,705.10 M620.00,705.10L620.00,705.48 M620.00,705.48L620.00,705.77 M620.00,705.77L620.00,705.94 M620.00,705.94L620.00,705.95 M620.00,705.95L620.00,706.05 M620.00,706.05L620.00,706.06 M620.00,706.06L620.00,706.23 M620.00,706.23L620.00,706.52 M620.00,706.52L620.00,706.90 M620.00,706.90L620.00,707.37 M620.00,707.37L620.00,707.92 M620.00,707.92L620.00,708.52 M620.00,708.52L620.00,709.16 M620.00,709.16L620.00,709.82 M620.00,709.82L620.00,710.49 M620.00,710.49L620.00,711.14 M620.00,711.14L620.00,711.77 M620.00,711.77L620.00,712.34 M620.00,712.34L620.00,712.85 M620.00,712.85L620.00,713.26 M620.00,713.26L620.00,713.56 M620.00,713.56L620.00,713.74 M620.00,713.74L620.00,713.76 M620.00,713.76L635.00,713.32 M635.00,698.13L650.00,698.03 M635.00,713.32L650.00,712.88 M650.00,698.03L665.00,697.90 M650.00,712.88L665.00,712.10 M665.00,697.90L691.67,697.77 M691.67,703.74L691.67,703.74 M691.67,703.84L691.67,703.84 M665.00,712.10L691.67,709.80 M691.67,697.77L718.33,697.60 M691.67,703.74L718.33,702.34 M691.67,703.74L718.33,702.34 M691.67,703.84L718.33,702.44 M691.67,703.84L718.33,702.44 M691.67,709.80L718.33,707.19 M718.33,697.60L745.00,697.49 M718.33,702.34L745.00,700.95 M718.33,702.34L745.00,700.95 M718.33,702.44L745.00,701.05 M718.33,702.44L745.00,701.05 M718.33,707.19L745.00,704.51 M745.00,697.49L748.33,697.60 M745.00,700.95L748.33,700.78 M745.00,700.95L748.33,700.78 M745.00,701.05L748.33,700.88 M745.00,701.05L748.33,700.88 M745.00,704.51L748.33,704.07 M748.33,697.60L751.67,697.84 M748.33,700.78L751.67,700.62 M748.33,700.78L751.67,700.62 M748.33,700.88L751.67,700.72 M748.33,700.88L751.67,700.72 M748.33,704.07L751.67,703.49 M751.67,697.84L755.00,698.08 M755.00,698.08L755.00,698.09 M755.00,698.09L755.00,698.14 M755.00,698.14L755.00,698.23 M755.00,698.23L755.00,698.36 M755.00,698.36L755.00,698.52 M755.00,698.52L755.00,698.70 M755.00,698.70L755.00,698.90 M755.00,698.90L755.00,699.10 M755.00,699.10L755.00,699.31 M755.00,699.31L755.00,699.51 M755.00,699.51L755.00,699.71 M755.00,699.71L755.00,699.90 M755.00,699.90L755.00,700.07 M755.00,700.07L755.00,700.22 M755.00,700.22L755.00,700.34 M755.00,700.34L755.00,700.43 M751.67,700.62L755.00,700.45 M755.00,700.43L755.00,700.45 M751.67,700.62L755.00,700.45 M751.67,700.72L755.00,700.55 M755.00,700.45L755.00,700.55 M751.67,700.72L755.00,700.55 M755.00,700.55L755.00,700.57 M755.00,700.57L755.00,700.66 M755.00,700.66L755.00,700.78 M755.00,700.78L755.00,700.93 M755.00,700.93L755.00,701.10 M755.00,701.10L755.00,701.29 M755.00,701.29L755.00,701.49 M755.00,701.49L755.00,701.69 M755.00,701.69L755.00,701.90 M755.00,701.90L755.00,702.10 M755.00,702.10L755.00,702.30 M755.00,702.30L755.00,702.48 M755.00,702.48L755.00,702.64 M755.00,702.64L755.00,702.77 M755.00,702.77L755.00,702.86 M755.00,702.86L755.00,702.91 M751.67,703.49L755.00,702.92 M755.00,702.91L755.00,702.92 M760.00,735.00L763.79,735.25 M763.79,735.25L767.51,735.99 M767.51,735.99L771.10,737.21 M771.10,737.21L774.50,738.89 M774.50,738.89L777.65,740.99 M777.65,740.99L780.51,743.49 M780.51,743.49L783.01,746.35 M783.01,746.35L785.11,749.50 M785.11,749.50L786.79,752.90 M786.79,752.90L788.01,756.49 M788.01,756.49L788.75,760.21 M788.75,760.21L789.00,764.00 M789.00,764.00L788.75,767.79 M788.75,767.79L788.01,771.51 M788.01,771.51L786.79,775.10 M786.79,775.10L785.11,778.50 M785.11,778.50L783.01,781.65 M783.01,781.65L780.51,784.51 M780.51,784.51L777.65,787.01 M777.65,787.01L774.50,789.11 M774.50,789.11L771.10,790.79 M771.10,790.79L767.51,792.01 M767.51,792.01L763.79,792.75 M763.79,792.75L760.00,793.00 M760.00,793.00L756.21,792.75 M756.21,792.75L752.49,792.01 M752.49,792.01L748.90,790.79 M748.90,790.79L745.50,789.11 M745.50,789.11L742.35,787.01 M742.35,787.01L739.49,784.51 M739.49,784.51L736.99,781.65 M736.99,781.65L734.89,778.50 M734.89,778.50L733.21,775.10 M733.21,775.10L731.99,771.51 M731.99,771.51L731.25,767.79 M731.25,767.79L731.00,764.00 M731.00,764.00L731.25,760.21 M731.25,760.21L731.99,756.49 M731.99,756.49L733.21,752.90 M733.21,752.90L734.89,749.50 M734.89,749.50L736.99,746.35 M736.99,746.35L739.49,743.49 M739.49,743.49L742.35,740.99 M742.35,740.99L745.50,738.89 M745.50,738.89L748.90,737.21 M748.90,737.21L752.49,735.99 M752.49,735.99L756.21,735.25 M760.00,735.00L756.21,735.25 M628.93,719.00L628.23,710.67 M628.93,719.00L628.90,719.00 M628.90,719.00L628.70,719.00 M628.70,719.00L628.35,719.00 M628.35,719.00L627.88,719.00 M627.88,719.00L627.30,719.00 M627.30,719.00L626.63,719.00 M626.63,719.00L625.91,719.00 M625.91,719.00L625.16,719.00 M625.16,719.00L624.39,719.00 M624.39,719.00L623.63,719.00 M623.63,719.00L622.90,719.00 M622.90,719.00L622.21,719.00 M622.21,719.00L621.58,719.00 M621.58,719.00L621.04,719.00 M621.04,719.00L620.60,719.00 M620.60,719.00L620.27,719.00 M620.27,719.00L620.07,719.00 M620.07,719.00L620.05,719.00 M620.05,719.00L619.95,719.00 M619.95,719.00L619.93,719.00 M619.93,719.00L619.73,719.00 M619.73,719.00L619.40,719.00 M619.40,719.00L618.96,719.00 M618.96,719.00L618.42,719.00 M618.42,719.00L617.79,719.00 M617.79,719.00L617.10,719.00 M617.10,719.00L616.37,719.00 M616.37,719.00L615.61,719.00 M615.61,719.00L614.84,719.00 M614.84,719.00L614.09,719.00 M614.09,719.00L613.37,719.00 M613.37,719.00L612.70,719.00 M612.70,719.00L612.12,719.00 M612.12,719.00L611.65,719.00 M611.65,719.00L611.30,719.00 M611.30,719.00L611.10,719.00 M611.07,719.00L611.77,710.67 M611.10,719.00L611.07,719.00 M628.23,710.67L627.55,702.33 M611.77,710.67L612.45,702.33 M627.55,702.33L626.92,694.00 M612.45,702.33L613.08,694.00 M626.92,694.00L626.05,681.00 M620.05,681.00L620.05,681.00 M619.95,681.00L619.95,681.00 M613.08,694.00L613.95,681.00 M626.05,681.00L625.25,668.00 M620.05,681.00L620.05,668.00 M620.05,681.00L620.05,668.00 M619.95,681.00L619.95,668.00 M619.95,681.00L619.95,668.00 M613.95,681.00L614.75,668.00 M625.25,668.00L624.51,655.00 M620.05,668.00L620.05,655.00 M620.05,668.00L620.05,655.00 M619.95,668.00L619.95,655.00 M619.95,668.00L619.95,655.00 M614.75,668.00L615.49,655.00 M624.51,655.00L624.01,645.00 M620.05,655.00L620.05,645.00 M620.05,655.00L620.05,645.00 M619.95,655.00L619.95,645.00 M619.95,655.00L619.95,645.00 M615.49,655.00L615.99,645.00 M624.01,645.00L623.53,635.00 M620.05,645.00L620.05,635.00 M620.05,645.00L620.05,635.00 M619.95,645.00L619.95,635.00 M619.95,645.00L619.95,635.00 M615.99,645.00L616.47,635.00 M623.53,635.00L623.02,625.00 M620.05,635.00L620.05,625.00 M620.05,635.00L620.05,625.00 M619.95,635.00L619.95,625.00 M619.95,635.00L619.95,625.00 M616.47,635.00L616.98,625.00 M623.02,625.00L622.81,621.50 M620.05,625.00L620.05,621.50 M620.05,625.00L620.05,621.50 M619.95,625.00L619.95,621.50 M619.95,625.00L619.95,621.50 M616.98,625.00L617.19,621.50 M622.81,621.50L622.53,618.00 M620.05,621.50L620.05,618.00 M620.05,621.50L620.05,618.00 M619.95,621.50L619.95,618.00 M619.95,621.50L619.95,618.00 M617.19,621.50L617.47,618.00 M622.53,618.00L622.12,614.50 M620.05,618.00L620.05,614.50 M620.05,618.00L620.05,614.50 M619.95,618.00L619.95,614.50 M619.95,618.00L619.95,614.50 M617.47,618.00L617.88,614.50 M622.12,614.50L621.80,613.00 M620.05,614.50L620.05,613.00 M620.05,614.50L620.05,613.00 M619.95,614.50L619.95,613.00 M619.95,614.50L619.95,613.00 M617.88,614.50L618.20,613.00 M621.80,613.00L621.39,611.50 M620.05,611.50L620.05,611.50 M620.05,613.00L620.05,611.50 M620.05,613.00L620.05,611.50 M619.95,613.00L619.95,611.50 M619.95,613.00L619.95,611.50 M619.95,611.50L619.95,611.50 M618.20,613.00L618.61,611.50 M621.39,611.50L621.02,610.00 M621.02,610.00L621.02,610.00 M621.02,610.00L620.99,610.00 M620.99,610.00L620.95,610.00 M620.95,610.00L620.90,610.00 M620.90,610.00L620.83,610.00 M620.83,610.00L620.76,610.00 M620.76,610.00L620.67,610.00 M620.67,610.00L620.59,610.00 M620.59,610.00L620.50,610.00 M620.50,610.00L620.41,610.00 M620.41,610.00L620.33,610.00 M620.33,610.00L620.25,610.00 M620.25,610.00L620.18,610.00 M620.18,610.00L620.12,610.00 M620.12,610.00L620.07,610.00 M620.07,610.00L620.05,610.00 M620.05,611.50L620.05,610.00 M620.05,611.50L620.05,610.00 M620.05,610.00L619.95,610.00 M619.95,611.50L619.95,610.00 M619.95,611.50L619.95,610.00 M619.95,610.00L619.93,610.00 M619.93,610.00L619.88,610.00 M619.88,610.00L619.82,610.00 M619.82,610.00L619.75,610.00 M619.75,610.00L619.67,610.00 M619.67,610.00L619.59,610.00 M619.59,610.00L619.50,610.00 M619.50,610.00L619.41,610.00 M619.41,610.00L619.33,610.00 M619.33,610.00L619.24,610.00 M619.24,610.00L619.17,610.00 M619.17,610.00L619.10,610.00 M619.10,610.00L619.05,610.00 M619.05,610.00L619.01,610.00 M619.01,610.00L618.98,610.00 M618.98,610.00L618.98,610.00 M618.61,611.50L618.98,610.00" fill="none" stroke="#536265" stroke-width=".85"/><text x="50" y="900" fill="#323b3b" font-size="14" font-family="Microsoft YaHei,sans-serif">正视 / FRONT</text><g stroke="#ae483a" stroke-width="1" fill="none"><path d="M148.8 575H471.2M148.8 569V581M471.2 569V581"/><path d="M212.5 870H1027.5M212.5 864V876M1027.5 864V876"/></g><g fill="#ae483a" font-size="12" font-family="Microsoft YaHei,sans-serif"><text x="260" y="597">机长 12.4 m</text><text x="567" y="895">翼展 16.3 m</text></g><text x="50" y="960" fill="#7c817b" font-family="Microsoft YaHei,sans-serif" font-size="12">尺寸来源：北航刊物 PDF 第31页（印刷页29）。另有翼展16.4m记载，差异见资料说明。</text></svg>